<?xml version="1.0" encoding="UTF-8" standalone="no"?>
<!-- Created with Inkscape (http://www.inkscape.org/) -->

<svg
   xmlns:dc="http://purl.org/dc/elements/1.1/"
   xmlns:cc="http://creativecommons.org/ns#"
   xmlns:rdf="http://www.w3.org/1999/02/22-rdf-syntax-ns#"
   xmlns:svg="http://www.w3.org/2000/svg"
   xmlns="http://www.w3.org/2000/svg"
   xmlns:sodipodi="http://sodipodi.sourceforge.net/DTD/sodipodi-0.dtd"
   xmlns:inkscape="http://www.inkscape.org/namespaces/inkscape"
   width="265.74802"
   height="265.74802"
   id="svg2"
   version="1.1"
   inkscape:version="0.48.0 r9654"
   sodipodi:docname="Turret.dxf">
  <sodipodi:namedview
     id="base"
     pagecolor="#ffffff"
     bordercolor="#666666"
     borderopacity="1.0"
     inkscape:pageopacity="0.0"
     inkscape:pageshadow="2"
     inkscape:zoom="2.4007705"
     inkscape:cx="134.54014"
     inkscape:cy="113.35406"
     inkscape:document-units="mm"
     inkscape:current-layer="layer1"
     showgrid="true"
     units="mm"
     inkscape:window-width="1280"
     inkscape:window-height="998"
     inkscape:window-x="1272"
     inkscape:window-y="-8"
     inkscape:window-maximized="0">
    <inkscape:grid
       snapvisiblegridlinesonly="true"
       enabled="true"
       visible="true"
       empspacing="5"
       id="grid2985"
       type="xygrid" />
  </sodipodi:namedview>
  <defs
     id="defs4" />
  <metadata
     id="metadata7">
    <rdf:RDF>
      <cc:Work
         rdf:about="">
        <dc:format>image/svg+xml</dc:format>
        <dc:type
           rdf:resource="http://purl.org/dc/dcmitype/StillImage" />
        <dc:title></dc:title>
      </cc:Work>
    </rdf:RDF>
  </metadata>
  <g
     transform="translate(0,-786.61416)"
     id="layer1"
     inkscape:groupmode="layer"
     inkscape:label="1- BASE">
    <path
       style="fill:none;stroke:#000000;stroke-opacity:1"
       d="m 62.54012,1036.0993 c -0.35373,-0.3256 -1.19284,-2.2804 -1.8647,-4.344 -1.14779,-3.5254 -1.2473,-4.7238 -1.64776,-19.8461 -0.23442,-8.8517 -0.54634,-16.41031 -0.69317,-16.79681 -0.14684,-0.38649 -0.51373,-5.82865 -0.81533,-12.09368 -0.62862,-13.05821 -1.5243,-25.20231 -1.87962,-25.48486 -0.13353,-0.10619 -1.75662,-0.27995 -3.60686,-0.38614 l -3.36408,-0.19306 -0.36273,-1.54454 c -0.1995,-0.8495 -0.14219,-3.94619 0.12736,-6.88154 0.26955,-2.93535 0.35959,-5.49831 0.2001,-5.69548 -0.63749,-0.78808 -1.24112,-0.28266 -1.24112,1.0392 0,1.83064 -2.39256,13.33258 -3.06058,14.71338 -1.05828,2.18745 -3.27642,5.12452 -3.87083,5.12541 -2.88914,0.004 -3.74075,-14.00714 -1.62563,-26.74629 l 0.5622,-3.38608 -2.63929,-4.33661 c -4.1207,-6.77071 -4.8403,-8.04907 -5.80579,-10.31401 -0.49612,-1.16384 -1.46009,-3.07521 -2.14216,-4.24748 -1.76568,-3.03467 -6.113,-11.74764 -7.23851,-14.50754 -0.5241,-1.28514 -1.29604,-3.71779 -1.71542,-5.40588 -0.41939,-1.68808 -1.09166,-4.19869 -1.49395,-5.57912 -0.48023,-1.6479 -0.80174,-5.62623 -0.93616,-11.58403 -0.25402,-11.25843 0.30863,-16.99054 2.25514,-22.97499 0.55436,-1.70435 5.46573,-8.28675 7.39791,-9.91494 2.90057,-2.44424 8.69923,-3.38839 15.25911,-2.48451 8.87606,1.22301 10.22874,1.46163 12.49692,2.20446 1.43321,0.46937 2.50655,0.62404 2.79599,0.40291 0.27325,-0.20878 0.40106,-4.3738 0.30551,-9.95653 -0.0903,-5.27868 -0.16866,-12.20401 -0.17405,-15.38962 l -0.01,-5.79202 4.80126,-2.41168 c 2.6407,-1.32642 5.10497,-2.7165 5.47616,-3.08907 0.50493,-0.5068 0.63221,-1.94157 0.5054,-5.69714 l -0.1695,-5.01975 1.34645,-0.11898 c 1.70168,-0.15037 1.79709,0.1025 2.15725,5.71793 0.38988,6.07871 0.0959,6.61393 -5.01989,9.13958 -2.22374,1.09785 -4.47797,2.23878 -5.0094,2.53539 -0.89659,0.50043 -0.96008,1.05224 -0.88103,7.65726 0.0469,3.91489 0.22959,9.08906 0.40609,11.49817 l 0.32092,4.3802 1.44003,-1.90566 c 0.79202,-1.0481 2.82969,-3.10607 4.52816,-4.57326 l 3.08812,-2.66761 -0.17756,-7.14349 -0.17756,-7.14348 1.51619,0 1.51618,0 0.13973,5.67691 0.13972,5.67691 1.76978,-0.9176 c 4.13449,-2.14365 6.35635,-2.70779 11.21292,-2.84702 l 4.67042,-0.1339 3.66862,1.82362 c 4.80247,2.38724 6.34303,3.52439 10.56116,7.79563 3.90399,3.95312 7.05549,9.37284 8.73661,15.02456 l 0.93371,3.13904 3.85807,0.17063 c 4.52802,0.20027 8.83173,1.51892 10.59115,3.24512 6.59272,6.46822 8.87039,9.48659 11.45522,15.18039 3.06178,6.74442 5.13024,10.2542 6.12939,10.40041 3.51247,0.51399 5.53361,5.00148 2.95155,6.55325 -1.25047,0.75151 -1.25921,0.79693 -0.73004,3.79283 0.48035,2.71953 1.53477,6.30564 3.81308,12.96841 1.90359,5.56694 3.30138,19.7418 2.32282,23.55533 -0.26393,1.02853 -1.32752,2.78245 -2.43107,4.00897 -1.85803,2.06508 -7.42722,5.73855 -10.86652,7.16763 l -1.56145,0.64881 2.51494,0.57062 c 3.25029,0.73746 5.03792,1.45673 9.97275,4.01263 5.78329,2.99534 12.44584,8.02542 14.1454,10.67946 1.59337,2.48822 1.45185,3.14877 -0.75391,3.51892 -1.22699,0.20589 -1.50469,0.4108 -1.22678,0.90521 0.19758,0.35149 0.91088,1.76449 1.58512,3.14001 0.67424,1.37552 1.4081,2.67872 1.6308,2.896 0.2227,0.21729 0.90737,1.43764 1.52149,2.71188 0.61412,1.27424 1.39986,2.57745 1.74607,2.89601 1.32452,1.21873 4.0587,6.61109 8.2231,16.21764 0.69047,1.5928 1.69839,3.67793 2.23982,4.63361 0.89363,1.57735 1.74944,3.70035 4.51402,11.19787 1.11994,3.0373 3.22184,7.8579 4.79836,11.0049 0.63836,1.2742 1.42378,3.7068 1.74538,5.4058 0.3216,1.699 1.023,5.026 1.55868,7.3934 1.0007,4.4224 0.87674,6.6064 -0.39613,6.9796 -1.0086,0.2957 -1.69526,-0.3699 -4.27157,-4.1404 -2.84836,-4.1687 -6.86238,-9.366 -10.28868,-13.3216 -2.78021,-3.2098 -4.20162,-5.4369 -7.04055,-11.0312 -0.92341,-1.8197 -2.26927,-4.1986 -2.99081,-5.28645 -0.72153,-1.08788 -1.79282,-3.33491 -2.38064,-4.9934 -1.19336,-3.36698 -3.91081,-9.51242 -5.46172,-12.35151 -1.47462,-2.69943 -5.36569,-10.45382 -6.26262,-12.48053 -0.42293,-0.95568 -1.95997,-3.42387 -3.41563,-5.48487 l -2.64666,-3.74726 -1.75941,0.56165 c -0.96768,0.30891 -2.50935,0.56166 -3.42594,0.56166 -1.58249,0 -1.82784,-0.20872 -4.86589,-4.13933 -4.31787,-5.58645 -7.83366,-8.23074 -14.32448,-10.77368 l -5.04755,-1.9775 -2.02158,1.09566 c -3.65863,1.98289 -6.29602,2.42148 -14.44816,2.40262 -6.94345,-0.0161 -7.66048,-0.0903 -12.31834,-1.27592 -4.41502,-1.12377 -5.25089,-1.49223 -7.78928,-3.43355 -1.56394,-1.19608 -3.5686,-3.01265 -4.45481,-4.03682 l -1.61128,-1.86211 -1.22601,1.48382 c -0.6743,0.8161 -1.59451,1.71748 -2.04489,2.00307 -0.72697,0.46095 -0.78276,1.43666 -0.49706,8.69241 0.29549,7.50415 0.24849,8.22922 -0.57425,8.85781 -0.49285,0.37655 -1.52889,0.78133 -2.3023,0.89951 -1.12654,0.17214 -1.44109,0.45636 -1.58162,1.42904 -0.0965,0.66779 0.0884,8.68587 0.41085,17.81795 0.32244,9.13207 0.60672,22.39223 0.63174,29.46693 0.0423,11.9734 -0.0416,13.2699 -1.21381,18.7432 -1.2847,5.9986 -2.48022,9.7154 -3.40272,10.5788 -0.71278,0.6671 -2.66218,0.6051 -3.43829,-0.1094 z m 2.64514,-1.4491 c -0.0817,-0.364 0.10232,-0.6618 0.40888,-0.6618 0.30656,0 0.41066,-0.1813 0.23134,-0.403 -0.17932,-0.2217 -0.0602,-0.6477 0.26463,-0.9468 0.33218,-0.3058 0.4381,-0.911 0.24206,-1.3829 -0.25648,-0.6174 -0.18126,-0.7602 0.28465,-0.5402 0.47359,0.2237 0.54853,0.041 0.29721,-0.7239 -0.21503,-0.6546 -0.13033,-1.0229 0.23524,-1.0229 0.38214,0 0.45831,-0.46 0.23009,-1.3895 -0.21181,-0.8626 -0.15555,-1.3018 0.14838,-1.1583 0.3019,0.1426 0.38163,-0.3836 0.20801,-1.3726 -0.21583,-1.2294 -0.13301,-1.5336 0.35482,-1.3032 0.48657,0.2297 0.55143,0 0.27557,-0.9545 -0.27009,-0.9396 -0.20599,-1.182 0.25497,-0.9643 0.46837,0.2211 0.54224,-0.2063 0.30864,-1.7858 -0.21315,-1.4413 -0.16072,-1.8403 0.17135,-1.3044 0.31135,0.5026 0.41451,-2.1949 0.29534,-7.7226 -0.10073,-4.6723 -0.26738,-13.01277 -0.37034,-18.53449 -0.10296,-5.52173 -0.29357,-15.64262 -0.42358,-22.49088 l -0.23638,-12.45138 -4.10634,-0.002 c -2.25849,-7.7e-4 -4.81705,-0.11005 -5.6857,-0.24278 -1.54025,-0.23536 -1.57937,-0.2061 -1.57937,1.18119 0,0.9736 0.1834,1.33593 0.58112,1.14813 0.43088,-0.20346 0.48939,0.58929 0.22633,3.06629 -0.25722,2.42211 -0.19453,3.34077 0.22796,3.34077 0.41562,0 0.48506,0.73135 0.24213,2.55011 -0.26185,1.96036 -0.19796,2.48274 0.27628,2.2588 0.47851,-0.22594 0.56365,0.91282 0.3795,5.07605 -0.13058,2.95204 -0.0651,4.84607 0.14543,4.20895 0.21056,-0.63712 0.34069,1.85026 0.28919,5.52751 -0.0515,3.67725 0.0721,6.28366 0.27475,5.79201 0.20261,-0.49164 0.29481,1.10435 0.20488,3.54665 -0.0899,2.4423 0.006,4.00614 0.21297,3.47521 0.2786,-0.71437 0.40514,-0.36301 0.48671,1.35151 0.0606,1.27415 0.059,2.49045 -0.004,2.70285 -0.0626,0.2124 -0.14636,4.2869 -0.1862,9.0544 -0.0398,4.7676 0.0712,8.1559 0.24682,7.5296 0.30229,-1.0781 0.68872,3.6089 0.66129,8.0209 -0.007,1.1379 0.15427,1.6458 0.42933,1.3515 0.26269,-0.2811 0.33113,0.2303 0.16946,1.2661 -0.20118,1.2889 -0.14408,1.5382 0.22112,0.9653 0.3841,-0.6025 0.44133,-0.452 0.26032,0.6844 -0.15866,0.9961 -0.0565,1.3738 0.32306,1.1946 0.36513,-0.1725 0.45755,0.023 0.27008,0.5705 -0.15675,0.458 -0.0654,0.8326 0.20291,0.8326 0.26835,0 0.34735,0.1738 0.17556,0.3862 -0.47031,0.5814 0.23555,1.2187 1.18426,1.0692 0.46732,-0.074 0.7717,-0.4243 0.68881,-0.7936 z m -4.55423,-29.4288 c -0.0103,-0.6371 0.0945,-0.9445 0.23298,-0.683 0.13844,0.2614 0.14687,0.7827 0.0187,1.1584 -0.12814,0.3757 -0.2414,0.1618 -0.2517,-0.4754 z m 133.75353,23.9404 c -0.0473,-0.9557 -0.27089,-1.7376 -0.49684,-1.7376 -0.22595,0 -0.27436,-0.5213 -0.10758,-1.1584 0.19556,-0.7471 0.0979,-1.1584 -0.27496,-1.1584 -0.3608,0 -0.46168,-0.3548 -0.2683,-0.9434 0.17045,-0.5189 0.15166,-1.139 -0.0417,-1.3781 -0.19341,-0.2391 -0.43055,-1.3064 -0.52697,-2.3718 -0.0964,-1.0654 -0.43984,-2.1806 -0.76315,-2.4782 -0.32601,-0.3002 -0.44586,-0.9734 -0.26908,-1.5115 0.17532,-0.5337 0.12491,-0.9704 -0.11203,-0.9704 -0.23693,0 -0.43079,-0.5244 -0.43079,-1.1653 0,-0.7024 -0.38446,-1.3801 -0.96788,-1.706 -0.53233,-0.2974 -0.8085,-0.6625 -0.6137,-0.8114 0.19481,-0.1488 0.007,-0.5355 -0.41639,-0.8593 -0.48911,-0.3737 -0.65753,-0.9329 -0.46108,-1.5309 0.22171,-0.6749 0.13781,-0.8611 -0.29575,-0.6564 -0.42503,0.2007 -0.52034,0.038 -0.32009,-0.5474 0.17492,-0.5111 0.0871,-0.7396 -0.22723,-0.5912 -0.32072,0.1514 -0.38488,-0.065 -0.17151,-0.5787 0.20987,-0.5052 0.12209,-0.8206 -0.22838,-0.8206 -0.3131,0 -0.44345,-0.1556 -0.28965,-0.3457 0.15379,-0.1901 -0.088,-0.4534 -0.53719,-0.5851 -0.61848,-0.1814 -0.74066,-0.5428 -0.5032,-1.4885 0.23759,-0.9463 0.1826,-1.1086 -0.22689,-0.6698 -0.41851,0.4485 -0.49603,0.3006 -0.34344,-0.6553 0.10838,-0.679 0.035,-1.1581 -0.16298,-1.0646 -0.47078,0.2223 -1.09321,-1.6808 -0.70619,-2.1592 0.16389,-0.20261 0.0643,-0.36838 -0.22138,-0.36838 -0.28565,0 -0.37413,-0.28914 -0.19664,-0.64254 0.20209,-0.40237 0.12186,-0.5477 -0.21465,-0.38881 -0.69338,0.32741 -1.20775,-1.2281 -0.80002,-2.41934 0.2371,-0.69271 0.15264,-0.84133 -0.34466,-0.60651 -0.50465,0.2383 -0.58012,0.0718 -0.32268,-0.71188 0.21446,-0.65287 0.13015,-1.02293 -0.23307,-1.02293 -0.313,0 -0.43365,-0.26967 -0.26811,-0.59926 0.19665,-0.39152 0.098,-0.50342 -0.28451,-0.32279 -0.38487,0.18173 -0.48041,0.0672 -0.27882,-0.33412 0.18167,-0.36171 -0.0107,-0.70364 -0.47195,-0.83887 -0.43743,-0.12825 -0.65186,-0.48066 -0.48935,-0.80423 0.1591,-0.31676 0.0446,-0.57594 -0.25433,-0.57594 -0.29898,0 -0.40816,-0.26967 -0.24262,-0.59926 0.19356,-0.38539 0.0965,-0.50271 -0.2719,-0.32874 -0.39164,0.18492 -0.49286,-0.0494 -0.31993,-0.74053 0.14872,-0.59437 0.0525,-0.91636 -0.23356,-0.7813 -0.29411,0.13887 -0.34376,-0.11395 -0.12554,-0.63925 0.2689,-0.64732 0.19795,-0.79199 -0.27817,-0.56717 -0.46544,0.21978 -0.56165,0.0754 -0.35397,-0.53138 0.15684,-0.45825 0.0953,-0.74354 -0.1367,-0.63398 -0.53587,0.25304 -1.17084,-1.21915 -0.75015,-1.73922 0.17333,-0.21427 0.0814,-0.38959 -0.20421,-0.38959 -0.28565,0 -0.37414,-0.28914 -0.19664,-0.64254 0.23584,-0.46956 0.14041,-0.55646 -0.35445,-0.3228 -0.49219,0.23241 -0.59071,0.14762 -0.36065,-0.31042 0.17408,-0.3466 0.0953,-0.73463 -0.17506,-0.86229 -0.27036,-0.12767 -0.36072,-0.39387 -0.20079,-0.59157 0.15992,-0.1977 0.0346,-0.35945 -0.27852,-0.35945 -0.35046,0 -0.43825,-0.31542 -0.22838,-0.82063 0.24479,-0.58925 0.16787,-0.73892 -0.27278,-0.53084 -0.44066,0.20807 -0.51757,0.0584 -0.27279,-0.53085 0.20799,-0.50068 0.12194,-0.82063 -0.22071,-0.82063 -0.30888,0 -0.52469,-0.2172 -0.47957,-0.48266 0.17889,-1.0525 -0.0612,-1.86862 -0.49017,-1.66608 -0.54309,0.25645 -1.18649,-0.86233 -0.78286,-1.36131 0.15629,-0.19321 0.0299,-0.35129 -0.28088,-0.35129 -0.31078,0 -0.4245,-0.17376 -0.2527,-0.38613 0.17179,-0.21238 0.0581,-0.38614 -0.2527,-0.38614 -0.31078,0 -0.42449,-0.17376 -0.2527,-0.38613 0.1718,-0.21238 0.0615,-0.38614 -0.24502,-0.38614 -0.30656,0 -0.49056,-0.25096 -0.40888,-0.55769 0.0817,-0.30673 -0.30635,-0.84089 -0.86229,-1.18703 -0.55593,-0.34614 -0.66964,-0.5167 -0.25269,-0.37901 0.67386,0.22252 0.67386,0.19352 0,-0.26097 -0.41695,-0.28122 -0.82166,-0.9457 -0.89934,-1.47664 -0.0777,-0.53093 -0.36338,-1.02361 -0.63489,-1.09485 -0.27151,-0.0712 -0.3651,-0.28843 -0.20798,-0.48267 0.15712,-0.19423 0.052,-0.35315 -0.23369,-0.35315 -0.28565,0 -0.37413,-0.28915 -0.19664,-0.64254 0.21553,-0.42912 0.12825,-0.55072 -0.26277,-0.36609 -0.38184,0.18031 -0.48137,0.0692 -0.28614,-0.31953 0.1736,-0.34564 -0.0277,-0.6919 -0.47928,-0.82428 -0.46124,-0.13523 -0.65361,-0.47716 -0.47194,-0.83887 0.21973,-0.43749 0.11648,-0.52078 -0.36422,-0.29379 -0.50331,0.23765 -0.59966,0.10865 -0.38572,-0.5164 0.17492,-0.51104 0.0871,-0.73963 -0.22723,-0.59122 -0.32072,0.15143 -0.38488,-0.065 -0.17151,-0.57867 0.20987,-0.50521 0.12208,-0.82063 -0.22838,-0.82063 -0.3131,0 -0.42872,-0.17376 -0.25693,-0.38613 0.17179,-0.21237 0.0581,-0.38613 -0.2527,-0.38613 -0.31078,0 -0.44423,-0.14936 -0.29657,-0.3319 0.47406,-0.58603 -0.92276,-2.36606 -1.72501,-2.19825 -0.41695,0.0872 -3.20295,0.54741 -6.1911,1.02268 -2.98816,0.47526 -5.43301,1.00886 -5.43301,1.18579 0,0.17692 0.24085,0.32168 0.53523,0.32168 0.29437,0 0.39118,0.17806 0.21513,0.3957 -0.17605,0.21763 -0.0189,0.34795 0.34922,0.2896 0.36812,-0.0584 0.63921,0.19116 0.60242,0.55449 -0.0368,0.36333 0.19063,0.62397 0.50539,0.5792 0.31476,-0.0448 0.55544,0.30093 0.53486,0.76821 -0.0207,0.47005 0.187,0.74363 0.46493,0.61239 0.29612,-0.13982 0.37083,0.0247 0.18197,0.40071 -0.18497,0.36828 -0.0878,0.59906 0.22999,0.54601 0.3027,-0.0505 0.66517,0.14948 0.80547,0.44451 0.17069,0.35895 0.0244,0.44529 -0.44222,0.26097 -0.38352,-0.1515 -0.27654,-0.0135 0.23774,0.30669 0.51427,0.32018 0.78166,0.77177 0.59418,1.00354 -0.19001,0.23489 -0.0446,0.37443 0.32843,0.31529 0.40269,-0.0638 0.65441,0.23235 0.63189,0.74351 -0.0206,0.46728 0.14332,0.76425 0.36422,0.65994 0.55708,-0.26305 1.11799,1.62223 0.65349,2.19644 -0.23178,0.28653 -0.16641,0.36766 0.16873,0.20941 0.66233,-0.31275 1.33791,1.10829 0.8271,1.73976 -0.24172,0.29882 -0.14138,0.3444 0.29969,0.13614 0.494,-0.23326 0.59037,-0.10064 0.37792,0.52007 -0.18455,0.5392 -0.0932,0.74252 0.25897,0.57624 0.34419,-0.16252 0.42556,-0.0208 0.22143,0.3856 -0.17774,0.35388 -0.0785,0.64255 0.22088,0.64255 0.29899,0 0.40817,0.26966 0.24263,0.59925 -0.16554,0.32959 -0.1,0.50435 0.14567,0.38835 0.61448,-0.29015 1.09813,0.79992 0.70351,1.58561 -0.21318,0.42444 -0.12704,0.55015 0.25374,0.37035 0.69589,-0.3286 1.38383,1.42713 0.82829,2.1139 -0.25809,0.31905 -0.16557,0.36726 0.29101,0.15167 0.49008,-0.23142 0.58023,-0.13861 0.33657,0.34652 -0.18303,0.36443 -0.1318,0.5677 0.11386,0.4517 0.59008,-0.27863 1.10473,0.78678 0.73533,1.52227 -0.16001,0.31856 -0.0257,0.5792 0.29838,0.5792 0.32411,0 0.44874,0.17376 0.27694,0.38613 -0.17179,0.21238 -0.0471,0.38614 0.27695,0.38614 0.32411,0 0.45838,0.26064 0.29838,0.5792 -0.16,0.31856 -0.0463,0.5792 0.2527,0.5792 0.29899,0 0.40817,0.26966 0.24262,0.59926 -0.16553,0.32959 -0.1,0.50435 0.14568,0.38835 0.63456,-0.29964 1.14086,0.90746 0.76257,1.81808 -0.2311,0.55631 -0.1432,0.68355 0.32085,0.46443 0.46545,-0.21978 0.56165,-0.0754 0.35398,0.53138 -0.18455,0.53919 -0.0932,0.74252 0.25897,0.57623 0.34749,-0.16408 0.42387,-0.0175 0.21135,0.40566 -0.22259,0.4432 -0.141,0.57204 0.24643,0.3891 0.39397,-0.18603 0.48801,-0.007 0.29404,0.55968 -0.18099,0.52879 -0.0908,0.74141 0.24679,0.58199 0.35193,-0.16618 0.41465,0.10596 0.18531,0.80409 -0.20622,0.62778 -0.15403,0.96432 0.12886,0.83074 0.50173,-0.23691 1.89251,3.53001 1.43295,3.88113 -0.14714,0.11242 0.18595,0.55087 0.74021,0.97434 0.55427,0.42347 0.87907,1.02618 0.72177,1.33935 -0.15729,0.31317 -0.085,0.4745 0.16067,0.3585 0.53885,-0.25444 1.17831,0.86803 0.77707,1.36404 -0.15629,0.1932 -0.019,0.3513 0.30513,0.3513 0.32494,0 0.45428,0.2688 0.28831,0.5992 -0.19664,0.3916 -0.098,0.5035 0.28452,0.3228 0.39101,-0.1846 0.47829,-0.063 0.26277,0.3661 -0.1775,0.3534 -0.10957,0.6426 0.15095,0.6426 0.26052,0 0.32845,0.2891 0.15095,0.6425 -0.23584,0.4696 -0.14041,0.5565 0.35444,0.3228 0.49486,-0.2337 0.59029,-0.1468 0.35445,0.3228 -0.1775,0.3534 -0.10957,0.6425 0.15095,0.6425 0.26052,0 0.32845,0.2892 0.15095,0.6426 -0.23462,0.4671 -0.13958,0.556 0.34817,0.3257 0.5033,-0.2376 0.59966,-0.1086 0.38572,0.5164 -0.18455,0.5392 -0.0932,0.7425 0.25897,0.5763 0.34749,-0.1641 0.42387,-0.017 0.21135,0.4056 -0.22427,0.4466 -0.14187,0.5725 0.2527,0.3862 0.39457,-0.1864 0.47697,-0.06 0.2527,0.3861 -0.18303,0.3644 -0.1318,0.5677 0.11386,0.4517 0.53885,-0.2545 1.17831,0.868 0.77707,1.364 -0.15629,0.1932 -0.0244,0.3513 0.29318,0.3513 0.31753,0 0.48325,0.2157 0.36826,0.4792 -0.11499,0.2636 0.0956,0.712 0.46792,0.9965 0.37235,0.2845 0.55483,0.6683 0.4055,0.8529 -0.14932,0.1846 0.24659,0.5441 0.8798,0.7989 1.41768,0.5705 1.97046,1.1635 1.66957,1.7911 -0.12606,0.2629 0.0185,0.4367 0.32119,0.3861 0.3027,-0.051 0.66517,0.1495 0.80547,0.4445 0.1711,0.3598 0.0414,0.4356 -0.39396,0.23 -0.42876,-0.2025 -0.52493,-0.153 -0.28334,0.1456 0.20113,0.2487 0.55164,0.3643 0.77891,0.257 0.63855,-0.3015 1.68742,0.8737 1.36056,1.5244 -0.16915,0.3368 -0.0341,0.541 0.32251,0.4876 0.34328,-0.051 0.59598,0.2901 0.57367,0.7752 -0.0219,0.4769 0.0651,0.7869 0.19344,0.6888 0.26898,-0.2055 2.12073,1.5037 2.12073,1.9575 0,0.1664 -0.35215,-0.035 -0.78256,-0.4471 -0.69121,-0.662 -0.6897,-0.603 0.013,0.5054 0.43754,0.6903 0.97143,1.255 1.18642,1.255 0.21499,0 0.68001,0.6108 1.03337,1.3575 0.3851,0.8136 0.8651,1.2523 1.19821,1.095 0.35649,-0.1683 0.44086,-0.034 0.23533,0.3755 -0.19755,0.3933 -0.0851,0.6027 0.29316,0.546 0.33745,-0.05 0.62703,0.1688 0.64349,0.4873 0.0608,1.1771 0.81253,2.3226 1.35583,2.066 0.35636,-0.1682 0.43942,-0.032 0.23217,0.3806 -0.18421,0.3667 -0.0765,0.6425 0.25105,0.6425 0.31557,0 0.43015,0.1097 0.25462,0.2438 -0.31858,0.2434 0.47778,1.6869 0.93064,1.6869 0.13144,0 0.20028,-0.7819 0.15297,-1.7376 z m -133.51734,-3.3787 c -0.1402,-0.2655 -0.25491,-0.048 -0.25491,0.4827 0,0.5309 0.11471,0.7481 0.25491,0.4826 0.1402,-0.2654 0.1402,-0.6998 0,-0.9653 z m 120.45491,-12.4056 c 0,-0.08 -0.398,-0.3842 -0.88445,-0.6757 -0.80158,-0.4803 -0.81946,-0.4666 -0.19081,0.1458 0.66023,0.6432 1.07526,0.8477 1.07526,0.5299 z m 7.91787,-3.5868 c -0.18532,-0.1416 -0.33693,-0.026 -0.33693,0.2574 0,0.2832 0.15161,0.399 0.33693,0.2574 0.18531,-0.1415 0.18531,-0.3732 0,-0.5148 z m -2.52698,-5.4059 c -0.18532,-0.1416 -0.33693,-0.026 -0.33693,0.2574 0,0.2832 0.15161,0.399 0.33693,0.2575 0.18531,-0.1416 0.18531,-0.3733 0,-0.5149 z m -1.51619,-4.6336 c -0.18531,-0.1416 -0.33693,-0.026 -0.33693,0.2574 0,0.2832 0.15162,0.399 0.33693,0.2574 0.18531,-0.1415 0.18531,-0.3732 0,-0.5148 z m -1.51619,-3.47521 c -0.18531,-0.14158 -0.33693,-0.0257 -0.33693,0.25743 0,0.28316 0.15162,0.399 0.33693,0.25742 0.18531,-0.14158 0.18531,-0.37326 0,-0.51485 z M 165.99179,985.0781 c -0.18532,-0.14158 -0.33694,-0.0257 -0.33694,0.25742 0,0.28316 0.15162,0.399 0.33694,0.25742 0.1853,-0.14158 0.1853,-0.37326 0,-0.51484 z m 12.1295,-1.54454 c -0.18532,-0.14158 -0.33693,-0.0257 -0.33693,0.25742 0,0.28317 0.15161,0.39901 0.33693,0.25743 0.18531,-0.14159 0.18531,-0.37327 0,-0.51485 z m -19.71044,-13.5147 c -0.18532,-0.14158 -0.33694,-0.0257 -0.33694,0.25742 0,0.28317 0.15162,0.39901 0.33694,0.25743 0.18531,-0.14159 0.18531,-0.37327 0,-0.51485 z m -117.39926,-9.0879 c -0.13705,-0.16942 0.005,-0.30804 0.31587,-0.30804 0.31078,0 0.4235,-0.17499 0.25049,-0.38886 -0.173,-0.21387 0.0541,-0.49694 0.50462,-0.62903 0.45054,-0.13209 0.70516,-0.46716 0.56582,-0.74459 -0.13935,-0.27744 -0.008,-0.56699 0.29257,-0.64346 0.30026,-0.0765 0.54592,-0.86962 0.54592,-1.76255 0,-0.89294 0.22548,-1.62352 0.50107,-1.62352 0.30304,0 0.37096,-0.62166 0.17186,-1.57296 -0.23516,-1.12361 -0.16596,-1.49587 0.24225,-1.30311 0.39253,0.18535 0.46231,0.007 0.22287,-0.56932 -0.19173,-0.46153 -0.12246,-1.04801 0.15393,-1.30329 0.27639,-0.25527 0.51152,-0.89854 0.52252,-1.42947 0.011,-0.53094 0.10695,-1.31286 0.21325,-1.73761 0.10629,-0.42474 0.36125,-1.72795 0.56658,-2.896 0.20533,-1.16806 0.47585,-2.40361 0.60117,-2.74566 0.12531,-0.34206 -0.17543,-0.95841 -0.66831,-1.36967 -0.49287,-0.41126 -0.67263,-0.47892 -0.39945,-0.15035 0.32576,0.39181 0.10835,0.34426 -0.63175,-0.13818 -1.19821,-0.78107 -1.56021,-1.62358 -0.49668,-1.15597 0.36704,0.16137 0.45527,0.13048 0.21058,-0.0738 -0.23164,-0.19333 -0.66755,-0.35151 -0.96868,-0.35151 -0.30113,0 -0.65282,-0.24138 -0.78154,-0.53641 -0.16007,-0.3669 -0.0137,-0.43885 0.46328,-0.2277 0.41169,0.18227 0.5248,0.16475 0.27615,-0.0428 -0.23164,-0.19333 -0.66045,-0.35151 -0.9529,-0.35151 -0.29245,0 -0.7253,-0.39977 -0.96187,-0.88838 -0.32165,-0.66433 -0.27253,-0.81605 0.19481,-0.60161 0.39032,0.17911 0.35708,0.0346 -0.0885,-0.38484 -0.91779,-0.8639 -1.6578,-0.0994 -1.21337,1.25348 0.21007,0.63947 0.12618,0.84499 -0.26877,0.65849 -0.41717,-0.19698 -0.48673,0.36796 -0.25441,2.06615 0.22175,1.62098 0.14517,2.33726 -0.2499,2.33726 -0.3943,0 -0.47243,0.71063 -0.25383,2.30853 0.20073,1.4673 0.11211,2.49607 -0.24319,2.82315 -0.56103,0.51648 -0.47552,8.38458 0.12677,11.66516 0.15597,0.84949 0.36325,1.97894 0.46063,2.50987 0.0974,0.53094 0.21613,1.1391 0.2639,1.35147 0.0478,0.21238 0.29578,0.13379 0.55115,-0.17463 0.25537,-0.30842 0.35218,-0.69938 0.21513,-0.8688 z m 106.01794,-2.65523 c 0.87708,-0.35864 11.42741,-2.10319 17.23548,-2.84999 1.04238,-0.13403 1.89524,-0.42357 1.89524,-0.64343 0,-0.89124 -3.74855,-4.62878 -6.33684,-6.31823 -2.13384,-1.39281 -2.76029,-1.64294 -2.76029,-1.10214 0,0.46661 -0.29451,0.28417 -0.88444,-0.54789 -1.10619,-1.56022 -9.13337,-5.76674 -11.67947,-6.12045 -1.01193,-0.14058 -2.79576,-0.59458 -3.96406,-1.0089 -1.16831,-0.41431 -2.36231,-0.64086 -2.65333,-0.50344 -0.29103,0.13742 -0.52914,0.074 -0.52914,-0.14092 0,-0.451 -3.48443,-1.27011 -4.12208,-0.96901 -0.23457,0.11076 -0.42648,0.0521 -0.42648,-0.13026 0,-0.49719 -11.44551,-2.14125 -14.79594,-2.12533 -1.8966,0.009 -4.70703,0.46126 -8.02319,1.29107 l -5.10405,1.2772 3.98002,0.50768 c 2.18901,0.27923 5.19735,0.77525 6.6852,1.10227 3.85168,0.84658 15.20952,5.03914 16.98596,6.27009 0.82329,0.57048 1.19344,0.73316 0.82256,0.3615 -1.1218,-1.12415 -0.15812,-0.75845 1.52632,0.5792 0.86915,0.69022 2.22653,2.12374 3.01639,3.18561 0.78987,1.06187 2.18873,2.47163 3.10858,3.13281 1.55632,1.11866 2.99083,2.89587 3.62688,4.49335 0.30986,0.77823 0.95634,0.84815 2.39668,0.25921 z m 5.65349,-4.86065 c 0.18532,-0.14158 0.48855,-0.14158 0.67387,0 0.18531,0.14158 0.0337,0.25742 -0.33693,0.25742 -0.37063,0 -0.52224,-0.11584 -0.33694,-0.25742 z m 2.35852,-1.09405 c 0.34604,-0.31856 0.74288,-0.5792 0.88186,-0.5792 0.13898,0 -0.0304,0.26064 -0.37646,0.5792 -0.34604,0.31857 -0.74288,0.57921 -0.88186,0.57921 -0.13899,0 0.0304,-0.26064 0.37646,-0.57921 z m -19.54198,-13.57905 c 0.18532,-0.14158 0.48855,-0.14158 0.67387,0 0.18531,0.14158 0.0337,0.25742 -0.33694,0.25742 -0.37062,0 -0.52224,-0.11584 -0.33693,-0.25742 z m -63.89792,17.47789 c 0.58465,-0.28769 0.65423,-1.59593 0.39796,-7.483 -0.17082,-3.92389 -0.45139,-7.24194 -0.6235,-7.37343 -0.17211,-0.1315 -0.62034,0.0821 -0.99607,0.47471 -0.37573,0.39258 -0.90999,0.60668 -1.18725,0.47576 -0.27725,-0.13092 -0.6315,-0.0805 -0.78722,0.11196 -0.67273,0.83165 -7.26843,1.64576 -12.3444,1.52367 -3.18225,-0.0765 -5.14274,0.0233 -5.15801,0.26267 -0.0135,0.21238 -0.21716,2.29651 -0.45249,4.6314 -0.23532,2.3349 -0.31153,4.79292 -0.16936,5.46227 l 0.25849,1.21701 3.22747,-0.0798 c 1.77511,-0.0439 3.22747,0.0813 3.22747,0.27825 0,0.1969 0.45517,0.26707 1.01149,0.15592 0.55632,-0.11115 0.89409,-0.057 0.7506,0.12042 -0.36016,0.44524 1.19777,0.5708 7.08234,0.5708 2.77968,0 5.3728,-0.15689 5.76248,-0.34864 z m -1.46661,-4.0919 c 0,-0.28317 0.15162,-0.39901 0.33693,-0.25743 0.18531,0.14159 0.18531,0.37327 0,0.51485 -0.18531,0.14158 -0.33693,0.0257 -0.33693,-0.25742 z m -16.5096,-7.59398 c 0.18531,-0.14158 0.48855,-0.14158 0.67386,0 0.18531,0.14158 0.0337,0.25742 -0.33693,0.25742 -0.37062,0 -0.52224,-0.11584 -0.33693,-0.25742 z m 19.37351,11.1979 c -0.18531,-0.14158 -0.33693,-0.0257 -0.33693,0.25742 0,0.28316 0.15162,0.399 0.33693,0.25742 0.18531,-0.14158 0.18531,-0.37326 0,-0.51484 z m 68.90231,-0.12871 c -0.41696,-0.20588 -0.98553,-0.37431 -1.26349,-0.37431 -0.27797,0 -0.16426,0.16843 0.25269,0.37431 0.41696,0.20587 0.98553,0.3743 1.26349,0.3743 0.27797,0 0.16426,-0.16843 -0.25269,-0.3743 z m -92.63019,-3.7595 c -0.11616,-0.58695 -0.21432,-0.19838 -0.21811,0.86349 -0.004,1.06187 0.0913,1.5421 0.21121,1.06718 0.11997,-0.47492 0.12307,-1.34373 0.007,-1.93067 z m 89.85051,1.44269 c -0.1718,-0.21237 -0.42607,-0.38613 -0.56505,-0.38613 -0.13898,0 -0.11214,0.17376 0.0597,0.38613 0.1718,0.21237 0.42607,0.38613 0.56505,0.38613 0.13898,0 0.11214,-0.17376 -0.0597,-0.38613 z m 24.5117,-3.21483 c 0,-0.0692 -0.62543,-0.54701 -1.38984,-1.06187 l -1.38984,-0.93611 1.22524,1.06187 c 1.14517,0.99247 1.55444,1.23894 1.55444,0.93611 z m -27.79678,-0.38614 c 0,-0.0692 -0.62542,-0.547 -1.38983,-1.06187 l -1.38984,-0.93611 1.22523,1.06187 c 1.14518,0.99248 1.55444,1.23895 1.55444,0.93611 z m -62.8261,-3.25291 c -0.12712,-0.37166 -0.23113,-0.0676 -0.23113,0.67573 0,0.74331 0.10401,1.04739 0.23113,0.67574 0.12712,-0.37166 0.12712,-0.97982 0,-1.35147 z m 85.06352,-0.24233 c 0,-0.0802 -0.39799,-0.38426 -0.88444,-0.67573 -0.80159,-0.4803 -0.81946,-0.46665 -0.19082,0.14579 0.66024,0.6432 1.07526,0.84775 1.07526,0.52994 z m -45.86467,-0.71475 c 0.48644,-0.0425 0.88444,-0.17676 0.88444,-0.29843 0,-0.12167 0.43456,-0.24623 0.96569,-0.2768 1.02464,-0.059 4.808,-1.75337 5.31527,-2.38047 0.16565,-0.20478 -0.97815,-0.73803 -2.54178,-1.185 -2.9381,-0.83988 -3.74557,-0.72824 -4.91808,0.67996 -0.29604,0.35555 -1.15769,0.44271 -2.90603,0.29397 -1.36687,-0.11628 -2.48522,-0.0831 -2.48522,0.0738 0,0.15687 -1.34285,0.28523 -2.98411,0.28523 -1.64126,0 -2.88081,-0.12771 -2.75456,-0.28379 0.12626,-0.15608 -0.46402,-0.1778 -1.31175,-0.0483 -0.96648,0.14768 -1.54131,0.078 -1.54131,-0.18676 0,-0.23522 -0.37253,-0.31306 -0.841,-0.17572 -0.5783,0.16956 -0.72294,0.10063 -0.46305,-0.22066 0.27508,-0.34006 0.0238,-0.39932 -0.92317,-0.21773 -0.93894,0.18005 -1.38745,0.0776 -1.61123,-0.36791 -0.21579,-0.42964 -0.6769,-0.54707 -1.51619,-0.38613 -0.83958,0.161 -1.3004,0.0435 -1.51645,-0.38667 -0.1707,-0.33986 -0.50754,-0.52483 -0.74853,-0.41104 -0.61477,0.2903 -3.04742,-0.99092 -2.69909,-1.42154 0.15726,-0.19441 0.0233,-0.30572 -0.29768,-0.24736 -0.32098,0.0584 -0.96064,-0.3283 -1.42147,-0.85924 -0.81782,-0.94224 -0.81383,-0.95153 0.16699,-0.38848 0.55267,0.31727 -0.0186,-0.29083 -1.26942,-1.35132 -1.25085,-1.0605 -2.42328,-1.8903 -2.60539,-1.844 -0.18211,0.0463 -0.46379,-0.18 -0.62595,-0.50287 -0.18301,-0.36438 -0.0855,-0.48818 0.25718,-0.32638 0.30361,0.14336 0.13985,-0.21996 -0.36392,-0.80738 -0.8345,-0.97306 -0.96274,-1.00736 -1.44226,-0.38574 -0.28947,0.37525 -1.02221,1.25879 -1.62831,1.9634 -0.67643,0.78639 -0.83778,1.20366 -0.41781,1.08053 0.38343,-0.11242 0.95865,0.19449 1.30855,0.69816 0.3434,0.49431 1.0336,1.1207 1.53378,1.39198 0.50018,0.27128 0.78972,0.73155 0.64343,1.02281 -0.14629,0.29127 0.0121,0.66088 0.35196,0.82137 0.42993,0.203 0.49086,0.12677 0.20027,-0.25055 -0.22971,-0.29828 0.0843,-0.20577 0.69783,0.20558 0.61352,0.41135 1.01092,0.95612 0.8831,1.2106 -0.29985,0.59702 2.51412,2.6643 3.63496,2.67042 0.47171,0.003 0.80353,0.21563 0.73737,0.47346 -0.0742,0.28903 0.19985,0.37491 0.71465,0.22398 0.55639,-0.16312 0.71421,-0.0956 0.47309,0.20254 -0.23451,0.2899 -0.0924,0.36834 0.40369,0.22288 0.87835,-0.25752 5.97198,0.93775 5.65585,1.32719 -0.11501,0.14167 0.96351,0.22477 2.3967,0.18467 1.95734,-0.0548 2.2285,-0.005 1.08962,0.19849 -1.27888,0.22891 10.87321,0.21023 13.51934,-0.0208 z m -27.16503,-4.1592 c -0.79893,-0.63713 -1.2254,-1.15841 -0.9477,-1.15841 0.2777,0 1.00935,0.52128 1.62588,1.15841 0.61653,0.63712 1.04299,1.1584 0.94769,1.1584 -0.0953,0 -0.82694,-0.52128 -1.62587,-1.1584 z m 9.18136,3.60391 c -0.18531,-0.14158 -0.48855,-0.14158 -0.67387,0 -0.1853,0.14159 -0.0337,0.25743 0.33694,0.25743 0.37062,0 0.52224,-0.11584 0.33693,-0.25743 z m -32.34534,-1.93067 c -0.18531,-0.14158 -0.48855,-0.14158 -0.67386,0 -0.18531,0.14159 -0.0337,0.25743 0.33693,0.25743 0.37062,0 0.52224,-0.11584 0.33693,-0.25743 z m 4.96973,-2.18291 c 5.368,-1.66615 6.53866,-2.51937 10.48401,-7.64118 3.2758,-4.25259 4.53692,-6.87249 5.64884,-11.73507 1.59698,-6.9838 1.36039,-7.81993 -5.02604,-17.76218 -2.14907,-3.34564 -4.67458,-8.0753 -5.97935,-11.1979 -1.24237,-2.97323 -3.505,-8.35981 -5.02808,-11.97016 -2.49695,-5.91883 -3.35496,-8.48507 -4.90587,-14.67311 -0.96484,-3.84969 -2.01636,-11.10916 -2.01636,-13.92061 0,-2.96801 -0.0325,-3.02384 -2.75546,-4.73417 -0.8945,-0.56184 -6.96661,-2.03997 -11.64832,-2.83553 -1.66781,-0.28341 -5.19295,-0.5162 -7.83364,-0.51732 -4.39898,-0.002 -4.98268,0.088 -6.96653,1.07304 -2.17562,1.08022 -4.1118,3.091 -7.37469,7.65884 -1.33507,1.86901 -2.02062,3.56952 -2.83911,7.04234 -0.98016,4.1588 -1.06318,5.66264 -0.90602,16.41071 0.15645,10.69923 0.28309,12.18365 1.32234,15.50064 2.24172,7.15486 2.78068,8.70127 3.4317,9.84642 0.36221,0.63712 1.48376,2.89601 2.49233,5.01975 1.00858,2.12374 2.95046,5.87117 4.31529,8.32763 1.36484,2.45647 2.48152,4.68101 2.48152,4.94345 0,0.41967 1.50003,2.91107 7.1212,11.82765 1.91807,3.04252 6.93162,8.61013 8.60814,9.55943 1.84445,1.04439 4.08064,1.36826 8.78236,1.27195 3.33173,-0.0682 4.84355,-0.33124 8.59174,-1.49462 z m -5.30666,-5.47542 c 0.34604,-0.31856 0.74287,-0.5792 0.88186,-0.5792 0.13898,0 -0.0304,0.26064 -0.37647,0.5792 -0.34604,0.31856 -0.74287,0.5792 -0.88186,0.5792 -0.13898,0 0.0304,-0.26064 0.37647,-0.5792 z m 8.08633,-26.4502 c 0,-0.28316 0.15162,-0.399 0.33693,-0.25742 0.18531,0.14158 0.18531,0.37326 0,0.51484 -0.18531,0.14158 -0.33693,0.0257 -0.33693,-0.25742 z m -1.01079,-3.08907 c 0,-0.28317 0.15162,-0.39901 0.33693,-0.25743 0.18531,0.14159 0.18531,0.37327 0,0.51485 -0.18531,0.14158 -0.33693,0.0257 -0.33693,-0.25742 z m -45.38455,-13.2058 c -2.49685,-1.90765 2.60669,-6.8206 11.09818,-10.68375 6.75775,-3.07439 11.50588,-3.99113 13.0949,-2.52829 1.01328,0.93282 0.22459,1.54407 -5.37268,4.16392 -5.90112,2.76207 -7.75419,3.82148 -12.41575,7.09814 -3.43881,2.41718 -5.12229,2.92974 -6.40465,1.94998 z m 5.20558,-2.23958 c 1.08571,-0.84949 1.7789,-1.54454 1.54042,-1.54454 -0.23848,0 -0.007,-0.39096 0.51358,-0.8688 0.52095,-0.47784 -0.18295,-0.0631 -1.56421,0.92155 -1.40673,1.00285 -2.89747,1.74004 -3.38915,1.67598 -0.7183,-0.0936 -0.78393,0.0196 -0.36126,0.62299 0.71702,1.02361 1.01503,0.94984 3.26062,-0.80718 z m -2.77968,0.70791 c 0,-0.24776 0.15562,-0.33159 0.34582,-0.18627 0.1902,0.14532 1.15677,-0.30356 2.14793,-0.99752 l 1.80211,-1.26172 -1.74168,1.448 c -1.79004,1.48821 -2.55418,1.78664 -2.55418,0.99751 z m -1.68465,-0.19306 c -0.18532,-0.14158 -0.33694,-0.0257 -0.33694,0.25742 0,0.28316 0.15162,0.399 0.33694,0.25742 0.18531,-0.14158 0.18531,-0.37326 0,-0.51484 z m 3.3323,-1.67784 c 0.5175,-0.44378 0.49461,-0.46227 -0.13146,-0.10616 -0.41696,0.23717 -0.94762,0.43151 -1.17926,0.43187 -0.23164,3.6e-4 -0.53677,0.089 -0.67806,0.19693 -0.14129,0.10795 0.1074,0.15542 0.55263,0.10549 0.44524,-0.0499 1.0915,-0.33258 1.43615,-0.62813 z m 0.85818,-1.71839 c 0.57097,-0.39479 0.925,-0.80424 0.78672,-0.90989 -0.13827,-0.10565 0.0201,-0.46871 0.35201,-0.80681 0.33188,-0.3381 -0.35238,0.0721 -1.52057,0.91164 -1.1682,0.8395 -2.12399,1.56261 -2.12399,1.6069 0,0.31574 1.65579,-0.2141 2.50583,-0.80184 z m -0.73695,-0.20769 c 0.50312,-0.42475 1.02847,-0.77227 1.16746,-0.77227 0.13898,0 -0.15895,0.34752 -0.66206,0.77227 -0.50311,0.42475 -1.02847,0.77227 -1.16745,0.77227 -0.13899,0 0.15894,-0.34752 0.66205,-0.77227 z m 2.27429,0.19306 c 0.34603,-0.31856 0.51544,-0.5792 0.37646,-0.5792 -0.13898,0 -0.53582,0.26064 -0.88186,0.5792 -0.34604,0.31857 -0.51545,0.57921 -0.37646,0.57921 0.13898,0 0.53582,-0.26064 0.88186,-0.57921 z m 2.71572,-2.50987 c 0.20697,0 0.21403,0.20061 0.0157,0.4458 -0.22521,0.27842 -0.13844,0.34088 0.23112,0.16638 0.32545,-0.15367 0.437,-0.47069 0.24788,-0.70448 -0.21359,-0.26404 -0.0572,-0.34102 0.41292,-0.2032 0.4419,0.12956 0.75677,0.005 0.75677,-0.29966 0,-0.38818 -0.23958,-0.42357 -0.93701,-0.13839 -0.51535,0.21072 -1.21659,0.26036 -1.5583,0.1103 -0.34172,-0.15006 -0.44865,-0.12754 -0.23763,0.05 0.21102,0.17757 -0.13013,0.77015 -0.7581,1.31684 l -1.14176,0.99399 1.29606,-0.86881 c 0.71284,-0.47784 1.4654,-0.8688 1.67237,-0.8688 z m 2.84363,0.14749 c 0,-0.10618 -0.22743,-0.0857 -0.5054,0.0456 -0.27796,0.13125 -0.50539,0.32552 -0.50539,0.43171 0,0.10619 0.22743,0.0857 0.50539,-0.0456 0.27797,-0.13125 0.5054,-0.32552 0.5054,-0.43171 z m 1.32443,-1.93165 c 0.0637,-0.33187 -0.0252,-0.49558 -0.19772,-0.36378 -0.1725,0.13179 -0.3658,0.51116 -0.42955,0.84303 -0.0637,0.33187 0.0252,0.49557 0.19772,0.36378 0.1725,-0.13179 0.3658,-0.51116 0.42955,-0.84303 z m 3.98223,-0.14651 c -0.1718,-0.21237 -0.42607,-0.38613 -0.56505,-0.38613 -0.13899,0 -0.11214,0.17376 0.0597,0.38613 0.17179,0.21237 0.42606,0.38613 0.56505,0.38613 0.13898,0 0.11214,-0.17376 -0.0597,-0.38613 z m 3.05738,-1.12749 c -0.15803,-0.19536 0.34026,-0.74381 1.10732,-1.21876 0.76706,-0.47495 1.0128,-0.7597 0.5461,-0.63276 -0.4667,0.12693 -1.71756,0.35251 -2.77968,0.50128 -1.06212,0.14877 -2.38598,0.52786 -2.94191,0.84242 -1.0108,0.57193 -1.0108,0.57193 0,0.28754 2.38249,-0.67032 2.92097,-0.68013 3.3741,-0.0615 0.25663,0.35036 0.58243,0.63701 0.724,0.63701 0.14158,0 0.12811,-0.15985 -0.0299,-0.35522 z m 67.27688,59.94862 c -0.18531,-0.14158 -0.48855,-0.14158 -0.67386,0 -0.18531,0.14158 -0.0337,0.25742 0.33693,0.25742 0.37062,0 0.52224,-0.11584 0.33693,-0.25742 z m -15.66727,-0.77227 c -0.18531,-0.14158 -0.48855,-0.14158 -0.67386,0 -0.18531,0.14159 -0.0337,0.25743 0.33693,0.25743 0.37062,0 0.52224,-0.11584 0.33693,-0.25743 z m 13.81415,-0.10809 c 1.03873,-0.23722 0.76902,-0.33316 -1.51618,-0.53934 -1.52883,-0.13795 -3.46197,-0.29486 -4.29587,-0.34871 -1.21191,-0.0783 -1.54658,-0.29751 -1.66761,-1.09249 -0.15546,-1.02114 0.62839,-1.42732 5.19197,-2.6904 l 1.50277,-0.41592 -2.015,-0.68926 c -1.10826,-0.3791 -3.26279,-1.66216 -4.78785,-2.85124 -2.60927,-2.03445 -2.92191,-2.16408 -5.29982,-2.19754 -4.83903,-0.0681 -13.89839,0.48033 -13.89839,0.84135 0,0.6505 2.86549,3.54334 5.63349,5.68725 2.28447,1.7694 3.41345,2.29124 7.25411,3.35302 3.73763,1.0333 5.26939,1.25521 8.59173,1.24465 2.22374,-0.007 4.61173,-0.14268 5.30665,-0.30137 z m -16.84652,-0.66418 c -0.18532,-0.14158 -0.48856,-0.14158 -0.67387,0 -0.18531,0.14159 -0.0337,0.25743 0.33693,0.25743 0.37062,0 0.52224,-0.11584 0.33694,-0.25743 z m -2.35852,-0.66063 c 0,-0.0802 -0.398,-0.38426 -0.88444,-0.67574 -0.80159,-0.4803 -0.81947,-0.46664 -0.19082,0.14579 0.66023,0.64321 1.07526,0.84775 1.07526,0.52995 z m 48.7707,-1.78488 c -0.17179,-0.21238 -0.42606,-0.38614 -0.56505,-0.38614 -0.13898,0 -0.11214,0.17376 0.0597,0.38614 0.17179,0.21237 0.42606,0.38613 0.56504,0.38613 0.13899,0 0.11215,-0.17376 -0.0597,-0.38613 z m 3.72556,-2.82464 c 3.26622,-1.47958 9.97082,-6.3725 10.67726,-7.7921 0.2785,-0.55966 0.50636,-1.65476 0.50636,-2.43353 l 0,-1.41598 -1.32845,1.53765 c -1.97185,2.28234 -8.3176,7.09958 -9.064,6.88075 -0.35646,-0.10451 -0.79142,-0.47536 -0.96659,-0.82412 -0.17517,-0.34877 -0.17725,-0.52621 -0.005,-0.39432 0.43315,0.33094 7.7198,-5.81235 8.91076,-7.51256 0.65506,-0.93516 0.83127,-6.96949 0.32635,-11.17599 -0.19673,-1.63891 -0.15929,-3.07352 0.0832,-3.18801 0.24248,-0.1145 0.55605,0.0101 0.69683,0.2769 0.8954,1.69687 0.0137,-2.34888 -1.89558,-8.69835 -1.22724,-4.08119 -2.38877,-8.57822 -2.58118,-9.9934 l -0.34984,-2.57305 -1.58834,0.14593 c -2.3044,0.21171 -8.41126,2.15008 -8.41126,2.66977 0,0.24356 0.4807,1.53037 1.06822,2.85957 l 1.06821,2.41673 -1.19371,0.9708 c -1.48018,1.20378 -10.35363,4.83517 -14.03424,5.74341 -1.502,0.37064 -4.09869,1.14825 -5.77042,1.72804 -2.79536,0.96948 -3.0884,1.19027 -3.64814,2.74875 -2.9968,8.34395 -3.88353,10.59095 -5.24007,13.27863 -1.73753,3.44251 -1.92236,4.2348 -0.72065,3.08908 0.71184,-0.67868 0.77114,-0.68655 0.48932,-0.065 -0.17638,0.38902 -0.32069,0.77998 -0.32069,0.8688 0,0.0888 -0.34114,0.16148 -0.75809,0.16148 -0.41695,0 -0.75809,0.18414 -0.75809,0.40919 0,0.22505 -0.88725,1.29814 -1.97165,2.38465 -1.08441,1.0865 -1.91768,2.16213 -1.85172,2.39028 0.066,0.22816 0.0246,0.28451 -0.0921,0.12523 -0.11659,-0.15928 -0.53417,-0.2896 -0.92796,-0.2896 -1.50468,0 -0.60702,1.21245 2.09908,2.83517 3.66565,2.19813 6.92137,2.84471 11.03702,2.19193 3.11352,-0.49384 3.98209,-0.42271 14.69032,1.20315 2.77282,0.421 5.15719,0.85386 5.2986,0.9619 0.56517,0.43181 3.96147,-0.36022 6.52577,-1.52183 z m -31.10117,-2.0664 c 0.18531,-0.14158 0.48855,-0.14158 0.67386,0 0.18531,0.14158 0.0337,0.25742 -0.33693,0.25742 -0.37062,0 -0.52224,-0.11584 -0.33693,-0.25742 z m -5.72782,-2.05938 c -0.45551,-0.22491 -0.51784,-0.37667 -0.15617,-0.38022 0.33105,-0.003 0.74247,0.16784 0.91427,0.38022 0.38779,0.4794 0.21283,0.4794 -0.7581,0 z m 47.00182,-5.79202 c 0,-0.28316 0.15162,-0.399 0.33693,-0.25742 0.18531,0.14158 0.18531,0.37326 0,0.51485 -0.18531,0.14158 -0.33693,0.0257 -0.33693,-0.25743 z m -39.64109,-10.15268 c 0.18979,-0.38081 0.47239,-0.59512 0.628,-0.47623 0.1556,0.11889 3.2e-4,0.43046 -0.34508,0.69239 -0.49914,0.37851 -0.55719,0.33416 -0.28292,-0.21616 z m 0.7256,-1.43135 c 0,-0.28316 0.15162,-0.399 0.33694,-0.25742 0.18531,0.14158 0.18531,0.37326 0,0.51485 -0.18532,0.14158 -0.33694,0.0257 -0.33694,-0.25743 z m 35.88311,-9.65336 c 0,-0.28316 0.15162,-0.399 0.33694,-0.25742 0.18531,0.14158 0.18531,0.37326 0,0.51485 -0.18532,0.14158 -0.33694,0.0257 -0.33694,-0.25743 z m -20.72123,-2.11015 c 0,-0.0987 0.51172,-0.3878 1.13714,-0.64242 1.03112,-0.41977 1.07247,-0.40304 0.44352,0.17948 -0.64581,0.59813 -1.58066,0.87193 -1.58066,0.46294 z m 2.69545,-0.85021 c 0.18531,-0.14158 0.48855,-0.14158 0.67386,0 0.18531,0.14158 0.0337,0.25742 -0.33693,0.25742 -0.37062,0 -0.52224,-0.11584 -0.33693,-0.25742 z m -7.41247,34.36596 c -0.18532,-0.14158 -0.48856,-0.14158 -0.67387,0 -0.18531,0.14158 -0.0337,0.25742 0.33693,0.25742 0.37062,0 0.52224,-0.11584 0.33694,-0.25742 z m -6.57015,-0.38614 c -0.18532,-0.14158 -0.48855,-0.14158 -0.67387,0 -0.1853,0.14159 -0.0337,0.25743 0.33694,0.25743 0.37062,0 0.52224,-0.11584 0.33693,-0.25743 z m 3.03237,0 c -0.18531,-0.14158 -0.48855,-0.14158 -0.67386,0 -0.18531,0.14159 -0.0337,0.25743 0.33693,0.25743 0.37062,0 0.52224,-0.11584 0.33693,-0.25743 z m 24.93287,-0.36735 c 0,-0.10619 -0.22743,-0.0857 -0.5054,0.0456 -0.27797,0.13126 -0.50539,0.32553 -0.50539,0.43171 0,0.10619 0.22742,0.0857 0.50539,-0.0456 0.27797,-0.13126 0.5054,-0.32552 0.5054,-0.43171 z m -0.5054,-4.58804 c 0.34604,-0.31856 0.51545,-0.5792 0.37647,-0.5792 -0.13899,0 -0.53583,0.26064 -0.88186,0.5792 -0.34604,0.31856 -0.51545,0.5792 -0.37647,0.5792 0.13898,0 0.53582,-0.26064 0.88186,-0.5792 z m -55.47309,-0.46616 c -0.62867,-0.0924 -1.53838,-0.0889 -2.02158,0.008 -0.48321,0.0966 0.0312,0.17221 1.14303,0.16793 1.11187,-0.004 1.50722,-0.0834 0.87855,-0.17572 z m 9.3136,-0.37046 c -0.18531,-0.14158 -0.48855,-0.14158 -0.67386,0 -0.18531,0.14158 -0.0337,0.25742 0.33693,0.25742 0.37062,0 0.52224,-0.11584 0.33693,-0.25742 z m -4.76044,-0.84207 c 0.25311,-0.19339 0.88977,-2.41432 1.41478,-4.93541 0.52502,-2.52109 1.30925,-6.04179 1.74273,-7.82377 1.9537,-8.03137 3.56266,-18.85421 2.91125,-19.58279 -0.20997,-0.23483 -1.19446,-0.54103 -2.18776,-0.68044 -2.41512,-0.33896 -6.09639,-2.1667 -7.59297,-3.76989 -1.64449,-1.76163 -2.05688,-7.60838 -0.68062,-9.64963 2.08724,-3.09576 6.48454,-6.06305 9.96657,-6.72543 0.77175,-0.14681 1.62109,-0.57802 1.88742,-0.95824 0.43083,-0.61504 0.64917,-7.89262 0.53846,-17.94737 -0.021,-1.91136 -0.36595,-4.69153 -0.76645,-6.17815 -0.4005,-1.48661 -0.87895,-3.48486 -1.06323,-4.44054 -0.59194,-3.06994 -2.62417,-9.01629 -3.76103,-11.00483 -0.60708,-1.06187 -1.83589,-3.40764 -2.73071,-5.21281 -0.89481,-1.80518 -2.23343,-3.77988 -2.97472,-4.38823 -1.27945,-1.04998 -1.52157,-1.0974 -4.77399,-0.935 -4.88229,0.2438 -9.25906,1.96618 -12.27062,4.82885 -1.25085,1.18901 -3.52514,3.23837 -5.05396,4.55414 -2.93069,2.52227 -9.16199,11.1058 -6.95423,9.57935 2.35565,-1.6287 6.47244,-2.10602 9.58747,-1.11161 2.94159,0.93904 7.60803,5.12567 9.5515,8.5694 1.6094,2.85176 1.71365,3.29962 1.71365,7.36159 0,2.37881 -0.22743,4.49767 -0.5054,4.70858 -0.33662,0.25541 -0.52491,-0.67317 -0.56384,-2.78057 -0.0466,-2.52322 0.0148,-2.81211 0.30314,-1.42643 l 0.36158,1.73761 0.0759,-2.05 c 0.0474,-1.28161 -0.11352,-1.96054 -0.42949,-1.81135 -0.27796,0.13126 -0.50539,0.008 -0.50539,-0.27412 0,-1.1246 -3.25957,-6.40351 -5.07611,-8.22083 -4.1298,-4.13156 -6.9431,-5.32124 -10.60252,-4.48357 -1.15394,0.26415 -2.92799,1.06135 -3.94234,1.77158 -1.77011,1.23939 -1.809,1.32111 -0.96688,2.03206 0.4843,0.40886 0.87741,1.35171 0.87741,2.10444 0,0.75004 0.1412,2.15082 0.31379,3.11284 l 0.31379,1.74914 2.2597,-0.76369 c 2.90389,-0.98141 7.30316,-0.68409 11.2638,0.76126 3.61753,1.32014 4.54857,1.9415 4.54857,3.03565 0,0.66728 -0.35724,0.95653 -1.38984,1.12534 -2.23758,0.36579 -5.2039,1.25578 -8.64376,2.59339 -2.69192,1.04678 -3.31522,1.48251 -3.85726,2.69653 -0.35558,0.7964 -0.59454,1.44801 -0.53102,1.44801 0.0635,0 1.91301,-0.67102 4.10996,-1.49114 9.18029,-3.42701 11.32271,-3.8901 11.32271,-2.44743 0,0.38227 -0.20995,0.86011 -0.46655,1.06186 -0.71074,0.55883 -1.50101,4.46555 -1.07944,5.33624 0.31617,0.65301 0.42327,0.57445 0.70997,-0.5208 0.1857,-0.7094 0.45265,-1.20194 0.59322,-1.09455 0.14057,0.1074 -0.0884,1.56868 -0.50882,3.24728 -0.42042,1.67861 -0.76443,3.70362 -0.76448,4.50002 -8e-5,1.28102 0.14335,1.44801 1.24371,1.44801 2.21853,0 3.74545,1.84712 4.54861,5.50246 0.43257,1.96872 -0.908,2.91474 -5.87157,4.14353 -3.71897,0.92067 -3.88109,1.01087 -4.16395,2.31681 -0.55088,2.54331 -0.2938,5.60129 0.6661,7.92312 l 0.95783,2.3168 0.0491,-2.50987 c 0.027,-1.38043 0.21834,-3.98684 0.42514,-5.79202 l 0.37602,-3.28214 0.29182,2.50988 0.29182,2.50987 0.13067,-2.89601 c 0.0908,-2.01347 0.24634,-2.60183 0.51021,-1.93067 0.20876,0.53093 0.20089,2.18166 -0.0175,3.66828 -0.21836,1.48661 -0.40871,4.75102 -0.42298,7.25424 l -0.0259,4.5513 2.4891,3.55752 c 3.6873,5.27003 5.09183,8.40124 5.09183,11.35156 0,1.36911 0.26467,2.86883 0.58814,3.33271 0.52667,0.75526 0.50243,0.7894 -0.23187,0.32667 -0.71143,-0.44832 -0.84882,-0.39718 -1.03753,0.38613 -0.6792,2.81919 -1.86488,7.20797 -2.16453,8.0119 l -0.34695,0.93086 5.21926,-0.24294 c 2.8706,-0.13361 5.42637,-0.40116 5.67948,-0.59454 z m -4.15185,-4.82415 c -1.12087,-1.13426 -2.03795,-2.20719 -2.03795,-2.38429 0,-0.17711 1.02342,0.68495 2.27428,1.91568 1.25085,1.23073 2.27428,2.30367 2.27428,2.3843 0,0.45328 -0.68953,-0.0729 -2.51061,-1.91569 z m -1.53256,-14.15535 c 0,-0.28316 0.15162,-0.399 0.33693,-0.25742 0.18531,0.14158 0.18531,0.37327 0,0.51485 -0.18531,0.14158 -0.33693,0.0257 -0.33693,-0.25743 z m -3.28507,-5.01974 c -0.1718,-0.21238 -0.19864,-0.38614 -0.0596,-0.38614 0.13898,0 0.39325,0.17376 0.56504,0.38614 0.1718,0.21237 0.19864,0.38613 0.0596,0.38613 -0.13898,0 -0.39325,-0.17376 -0.56504,-0.38613 z m -2.02159,-1.54454 c -0.17179,-0.21237 -0.0849,-0.38613 0.19305,-0.38613 0.27797,0 0.64595,0.17376 0.81775,0.38613 0.17179,0.21237 0.0849,0.38614 -0.19305,0.38614 -0.27797,0 -0.64595,-0.17377 -0.81775,-0.38614 z m -1.26349,-1.54454 c 0,-0.28316 0.15162,-0.399 0.33694,-0.25742 0.18531,0.14158 0.18531,0.37326 0,0.51485 -0.18532,0.14158 -0.33694,0.0257 -0.33694,-0.25743 z m 18.60179,27.03468 c 1.82109,-0.008 4.85477,-2.78018 5.91879,-5.40813 0.36461,-0.90053 0.32855,-0.92531 -0.56179,-0.38613 -0.92361,0.55933 -0.92548,0.54796 -0.0642,-0.38916 3.46457,-3.76982 6.61718,-11.99335 8.43772,-22.00966 2.21274,-12.17418 2.64806,-15.28376 3.08119,-22.00966 0.52243,-8.11269 0.32927,-11.84774 -0.87866,-16.98991 -1.66387,-7.0831 -4.8573,-16.78503 -6.48199,-19.69285 -0.65263,-1.16806 -1.31629,-2.55814 -1.47482,-3.08907 -0.26687,-0.89384 -6.05601,-7.1264 -8.55633,-9.21172 -1.19709,-0.99838 -5.69479,-3.47543 -5.29207,-2.91453 1.17113,1.63116 5.31714,8.55964 6.28326,10.50008 1.39705,2.80596 3.55425,9.42754 4.2851,13.15328 0.71986,3.66971 1.38296,18.84157 0.96851,22.16007 l -0.35,2.80251 2.3238,1.73761 c 6.60989,4.94249 5.02033,15.48604 -2.72955,18.10522 l -2.21004,0.74691 -0.19859,3.4129 c -0.18121,3.11412 -1.04899,9.25905 -2.44504,17.31374 -0.57771,3.33322 -1.99564,8.40973 -3.33222,11.93016 -0.23274,0.61301 -0.0835,0.69247 0.91666,0.48794 0.65708,-0.13438 1.71922,-0.2467 2.36031,-0.2496 z m 3.63563,-4.40024 c 0,-0.10619 0.22743,-0.30046 0.5054,-0.43171 0.27797,-0.13126 0.5054,-0.15176 0.5054,-0.0456 0,0.10619 -0.22743,0.30046 -0.5054,0.43171 -0.27797,0.13126 -0.5054,0.15177 -0.5054,0.0456 z m -1.01079,-10.03949 c 0,-0.10619 0.22743,-0.30046 0.5054,-0.43171 0.27797,-0.13126 0.50539,-0.15177 0.50539,-0.0456 0,0.10619 -0.22742,0.30046 -0.50539,0.43171 -0.27797,0.13125 -0.5054,0.15176 -0.5054,0.0456 z m 0.5054,14.24139 c 0.34604,-0.31856 0.51545,-0.5792 0.37646,-0.5792 -0.13898,0 -0.53582,0.26064 -0.88186,0.5792 -0.34604,0.31856 -0.51545,0.5792 -0.37646,0.5792 0.13898,0 0.53582,-0.26064 0.88186,-0.5792 z m 2.52698,-2.36238 c 0,-0.10619 -0.22743,-0.0857 -0.5054,0.0456 -0.27797,0.13126 -0.50539,0.32553 -0.50539,0.43171 0,0.10619 0.22742,0.0857 0.50539,-0.0456 0.27797,-0.13126 0.5054,-0.32552 0.5054,-0.43171 z m -9.26781,-1.40243 c -0.1402,-0.26547 -0.25492,-0.0483 -0.25492,0.48267 0,0.53093 0.11472,0.74813 0.25492,0.48267 0.1402,-0.26547 0.1402,-0.69987 0,-0.96534 z m 58.15142,-3.47521 c -0.11211,-0.69021 -0.20384,-0.12549 -0.20384,1.25494 0,1.38043 0.0917,1.94515 0.20384,1.25493 0.1121,-0.69021 0.1121,-1.81965 0,-2.50987 z m -47.53589,2.15592 c -0.18531,-0.14158 -0.33693,-0.0257 -0.33693,0.25742 0,0.28317 0.15162,0.39901 0.33693,0.25743 0.18531,-0.14159 0.18531,-0.37327 0,-0.51485 z m -8.95433,-3.51586 c 0.90581,-3.10696 1.409,-7.08284 0.83785,-6.62017 -0.19973,0.16179 -1.64742,6.16336 -2.18109,9.04198 -0.49116,2.6493 0.25922,1.29638 1.34324,-2.42181 z m -13.78848,0.0407 c -0.18532,-0.14158 -0.33694,-0.0257 -0.33694,0.25742 0,0.28317 0.15162,0.39901 0.33694,0.25743 0.1853,-0.14159 0.1853,-0.37327 0,-0.51485 z m 68.19685,-0.7964 c -0.16793,-0.12831 -0.28738,0.0997 -0.26544,0.5068 0.0243,0.44982 0.14401,0.54132 0.30534,0.23329 0.14599,-0.27874 0.12804,-0.61179 -0.0399,-0.74009 z m -67.66727,-4.26244 c -0.11532,-0.58023 -0.20735,-0.0124 -0.20451,1.26185 0.003,1.27424 0.0972,1.74897 0.20967,1.05496 0.11248,-0.69402 0.11016,-1.73659 -0.005,-2.31681 z m 26.2564,0.0391 c -0.18532,-0.14158 -0.33693,-0.0257 -0.33693,0.25743 0,0.28316 0.15161,0.399 0.33693,0.25742 0.18531,-0.14158 0.18531,-0.37326 0,-0.51485 z m 0.50539,-1.54454 c -0.18531,-0.14158 -0.33693,-0.0257 -0.33693,0.25743 0,0.28316 0.15162,0.399 0.33693,0.25742 0.18531,-0.14158 0.18531,-0.37326 0,-0.51485 z m 40.43168,-0.38613 c -0.18532,-0.14158 -0.33694,-0.0257 -0.33694,0.25742 0,0.28317 0.15162,0.39901 0.33694,0.25743 0.1853,-0.14159 0.1853,-0.37327 0,-0.51485 z m -52.56339,-1.76978 c -0.14021,-0.26547 -0.25492,-0.0483 -0.25492,0.48267 0,0.53093 0.11471,0.74813 0.25492,0.48266 0.1402,-0.26546 0.1402,-0.69986 0,-0.96533 z m 12.63711,0.22524 c -0.18531,-0.14158 -0.33693,-0.0257 -0.33693,0.25743 0,0.28316 0.15162,0.399 0.33693,0.25742 0.18531,-0.14158 0.18531,-0.37326 0,-0.51485 z m -12.13172,-3.31432 c -0.1402,-0.26546 -0.25492,-0.0483 -0.25492,0.48267 0,0.53094 0.11472,0.74814 0.25492,0.48267 0.1402,-0.26547 0.1402,-0.69987 0,-0.96534 z m 0.50762,-2.86383 c -0.18532,-0.14158 -0.33694,-0.0257 -0.33694,0.25743 0,0.28316 0.15162,0.399 0.33694,0.25742 0.1853,-0.14158 0.1853,-0.37326 0,-0.51485 z m 17.3098,-2.30475 c 0.11582,-0.0774 -0.39589,-0.14076 -1.13714,-0.14076 -0.87477,0 -1.34772,0.20802 -1.34772,0.59278 0,0.49126 0.19477,0.51537 1.13714,0.14077 0.62543,-0.24861 1.2319,-0.51537 1.34772,-0.59279 z m -3.16094,-0.62343 c -0.1402,-0.26547 -0.25492,-0.0483 -0.25492,0.48267 0,0.53093 0.11472,0.74813 0.25492,0.48266 0.1402,-0.26546 0.1402,-0.69986 0,-0.96533 z m 5.12758,-0.8688 c 3.1618,-1.16537 3.80897,-1.21433 2.11865,-0.16028 l -1.26349,0.78789 1.26349,-0.2665 c 2.8456,-0.60022 6.49054,-1.79042 9.34982,-3.05306 l 3.03237,-1.33908 -2.68655,-0.0117 c -1.4776,-0.006 -3.12134,-0.18948 -3.65275,-0.40677 -0.76647,-0.3134 -0.9082,-0.27961 -0.68567,0.16346 0.16828,0.33505 -0.19015,0.75098 -0.89581,1.03952 -0.64699,0.26455 -1.17634,0.42614 -1.17634,0.35909 0,-0.067 -0.51171,0.002 -1.13714,0.15383 -0.62543,0.15167 -1.13714,0.41922 -1.13714,0.59456 0,0.17533 -0.37331,0.42825 -0.82958,0.56201 -0.72414,0.21231 -0.7402,0.16045 -0.12635,-0.40804 0.64166,-0.59423 0.60243,-0.61022 -0.44807,-0.18253 -0.64785,0.26376 -0.99835,0.6578 -0.80153,0.90111 0.23614,0.29191 0.0405,0.34171 -0.60218,0.15328 -0.52357,-0.1535 -0.78009,-0.14778 -0.57003,0.0127 0.21006,0.16049 -0.47916,0.69006 -1.53159,1.17683 -2.54333,1.17634 -1.49704,1.13146 1.77989,-0.0764 z m 3.84325,-1.29674 c 0.42165,-0.52125 3.32962,-1.72778 3.62336,-1.50335 0.11005,0.0841 -0.74143,0.55715 -1.89217,1.05129 -1.15074,0.49413 -1.92977,0.69756 -1.73119,0.45206 z m 0.63391,2.00465 c -0.18531,-0.14158 -0.48855,-0.14158 -0.67386,0 -0.18531,0.14158 -0.0337,0.25742 0.33693,0.25742 0.37062,0 0.52224,-0.11584 0.33693,-0.25742 z m -46.42689,-6.4034 -0.0989,-4.34401 -0.28012,4.05441 c -0.15406,2.22993 -0.20983,4.18474 -0.12394,4.34402 0.46714,0.86621 0.59211,-0.14114 0.50299,-4.05442 z m 40.02521,3.17203 c 0,-0.2049 0.17057,-0.34539 0.37904,-0.31219 0.20848,0.0332 1.62991,-0.37767 3.15873,-0.91303 1.52882,-0.53538 3.26287,-1.08861 3.85343,-1.22942 1.07116,-0.2554 1.07154,-0.2609 0.1561,-2.27257 -1.08323,-2.38042 -3.8294,-9.28285 -4.29727,-10.80111 -0.17998,-0.58403 -0.55466,-1.06187 -0.83263,-1.06187 -0.27797,0 -0.38864,0.39096 -0.24593,0.8688 0.14272,0.47784 0.0696,1.21632 -0.16238,1.64107 -0.30456,0.55754 -0.44283,0.18175 -0.49728,-1.35147 -0.0415,-1.16806 -0.16616,-1.94998 -0.27706,-1.73761 -0.1109,0.21238 -0.76832,4.03511 -1.46092,8.49496 -0.69261,4.45985 -1.41318,8.5195 -1.60129,9.02145 -0.31353,0.8366 -0.25166,0.87567 0.74272,0.46908 0.59661,-0.24395 1.08474,-0.61119 1.08474,-0.81609 z m 0.61556,-6.35763 c 0.005,-0.42475 0.18304,-1.29355 0.39523,-1.93068 0.34654,-1.04052 0.38676,-1.06017 0.39522,-0.19306 0.005,0.53093 -0.17267,1.39973 -0.39522,1.93067 -0.31708,0.75643 -0.4026,0.79822 -0.39523,0.19307 z m 0.90063,-5.98509 c 0,-0.28316 0.15161,-0.399 0.33693,-0.25742 0.18531,0.14158 0.18531,0.37326 0,0.51485 -0.18532,0.14158 -0.33693,0.0257 -0.33693,-0.25743 z m -4.21164,12.48501 c -0.18531,-0.14158 -0.33693,-0.0257 -0.33693,0.25743 0,0.28316 0.15162,0.399 0.33693,0.25742 0.18531,-0.14158 0.18531,-0.37326 0,-0.51485 z m 22.10113,-1.99502 c 0.14316,-0.17698 -0.0608,-0.32178 -0.45334,-0.32178 -0.39249,0 -0.59649,0.1448 -0.45333,0.32178 0.14316,0.17698 0.34716,0.32178 0.45333,0.32178 0.10618,0 0.31018,-0.1448 0.45334,-0.32178 z m -3.99111,-0.87035 c -0.70804,-0.23035 -0.25918,-0.30347 1.49861,-0.2441 2.09573,0.0708 2.54114,-0.0342 2.70192,-0.63671 0.11009,-0.41258 -0.0245,-0.619 -0.31434,-0.48213 -0.30767,0.14527 -0.39478,-0.0881 -0.22167,-0.59386 0.20767,-0.60674 0.11147,-0.75115 -0.35398,-0.53137 -0.47611,0.22481 -0.54707,0.0801 -0.27816,-0.56718 0.23548,-0.56686 0.17686,-0.78204 -0.16862,-0.61891 -0.35121,0.16585 -0.42911,-0.22305 -0.23127,-1.15453 0.28616,-1.34728 0.25342,-1.38625 -0.80218,-0.95462 -0.60529,0.2475 -0.96863,0.61305 -0.80742,0.81234 0.16556,0.20467 -0.0843,0.2517 -0.57415,0.10807 -0.50157,-0.14705 -0.74069,-0.0978 -0.5671,0.11679 0.74133,0.91644 -3.17394,-0.003 -4.36621,-1.0255 -1.10765,-0.9498 -1.21259,-1.26308 -0.79539,-2.37451 0.26434,-0.70419 0.42333,-1.36394 0.35331,-1.46612 -0.07,-0.10217 0.44126,-0.18905 1.13618,-0.19307 0.77821,-0.004 1.21015,-0.2037 1.12462,-0.51866 -0.0764,-0.28125 0.0962,-0.40036 0.38357,-0.26468 0.87023,0.41091 2.51078,-0.1743 2.20354,-0.78604 -0.15393,-0.30647 -0.50783,-0.44957 -0.78645,-0.31801 -0.31802,0.15016 -0.37222,-0.0842 -0.1456,-0.62978 0.22662,-0.54552 0.17243,-0.77994 -0.14559,-0.62977 -0.66258,0.31286 -1.17637,-0.73518 -0.76345,-1.55731 0.20889,-0.4159 0.12495,-0.54916 -0.23797,-0.37779 -0.32623,0.15404 -0.57954,-0.0213 -0.60576,-0.41932 -0.16134,-2.44926 -0.27876,-2.72778 -1.02691,-2.43579 -0.41695,0.16274 -1.09923,0.40817 -1.51618,0.54541 -0.41696,0.13724 -0.22389,0.17249 0.42903,0.0783 0.65293,-0.0942 1.03692,-0.0564 0.85331,0.0839 -0.1836,0.14027 -1.66536,0.25882 -3.2928,0.26344 -1.62744,0.005 -2.86573,-0.0629 -2.75176,-0.15005 0.11397,-0.0871 -0.24619,-0.40107 -0.80035,-0.69762 -0.76651,-0.4102 -1.00758,-0.97889 -1.00758,-2.37692 l 0,-1.83773 2.81033,-0.88994 c 2.00302,-0.6343 2.72893,-1.05201 2.52698,-1.45411 -0.15585,-0.31029 -0.28335,-0.71759 -0.28335,-0.90512 0,-0.18754 -0.43561,-0.51909 -0.96802,-0.73679 -0.72266,-0.29549 -1.73321,-0.18546 -3.98702,0.43411 l -3.01901,0.82993 -0.36155,4.7892 c -0.19885,2.63406 -0.22412,4.89421 -0.0561,5.02254 0.16797,0.12834 0.3054,-0.82793 0.3054,-2.12504 0,-1.2971 0.22743,-2.46576 0.5054,-2.59701 0.27797,-0.13126 0.5054,0.0425 0.5054,0.38613 0,0.3787 0.23289,0.51481 0.59128,0.34558 0.39757,-0.18773 0.48555,-0.0687 0.26856,0.36335 -0.42224,0.84068 0.10704,1.86726 0.79519,1.54232 0.33758,-0.15941 0.41798,-0.0146 0.2156,0.38835 -0.1775,0.3534 -0.10957,0.64254 0.15095,0.64254 0.26052,0 0.34276,0.26065 0.18277,0.57921 -0.16014,0.31882 -0.0151,0.5792 0.32263,0.5792 0.34685,0 0.48271,0.26047 0.31255,0.59926 -0.17898,0.35635 -0.0902,0.49975 0.21889,0.35378 0.3348,-0.1581 0.40815,0.14403 0.20603,0.84874 -0.25231,0.87971 -0.19873,0.98068 0.27332,0.51502 0.47204,-0.46565 0.52562,-0.36468 0.27332,0.51503 -0.22804,0.79508 -0.14837,1.01609 0.29143,0.80842 0.41527,-0.19609 0.52495,-0.0512 0.34941,0.46171 -0.14073,0.41114 0.0703,0.98031 0.46896,1.26483 0.39866,0.28452 0.61289,0.84435 0.47608,1.24407 -0.13681,0.39972 -0.0589,0.63711 0.17313,0.52755 0.40689,-0.19214 0.53755,0.0311 1.24575,2.12881 0.2504,0.7417 0.20294,0.83115 -0.20486,0.38614 -0.32585,-0.35558 -0.53376,-0.40165 -0.53851,-0.11933 -0.004,0.25294 0.2352,0.57459 0.53212,0.7148 0.29692,0.1402 0.41323,0.507 0.25849,0.81511 -0.1782,0.35478 -0.069,0.45991 0.29785,0.2867 0.39397,-0.18603 0.48801,-0.007 0.29404,0.55968 -0.17061,0.49846 -0.0846,0.73845 0.21422,0.59737 0.27638,-0.13051 0.43023,0.0848 0.34452,0.48213 -0.23207,1.07591 0.44171,1.63377 1.71565,1.42047 0.68437,-0.11459 0.90517,-0.0617 0.55491,0.13278 -0.34378,0.19094 0.4831,0.34397 2.02158,0.37413 1.84163,0.0361 2.30758,-0.0452 1.59252,-0.27782 z m -5.55935,-0.73855 c -0.1718,-0.21237 -0.19864,-0.38613 -0.0596,-0.38613 0.13898,0 0.39325,0.17376 0.56504,0.38613 0.1718,0.21238 0.19864,0.38614 0.0597,0.38614 -0.13899,0 -0.39326,-0.17376 -0.56505,-0.38614 z m 3.15872,-3.3448 c 0.34746,-0.10712 0.91603,-0.10712 1.26349,0 0.34746,0.10712 0.0632,0.19476 -0.63174,0.19476 -0.69492,0 -0.97921,-0.0876 -0.63175,-0.19476 z m -2.16871,-0.54223 c -0.54394,-0.67243 0.0756,-0.81483 0.76874,-0.17671 0.39863,0.36698 0.43697,0.58854 0.10184,0.58854 -0.29559,0 -0.68736,-0.18533 -0.87058,-0.41183 z m -3.63281,-11.79163 c 0.16793,-0.12831 0.60384,-0.14202 0.96867,-0.0305 0.40317,0.12327 0.28342,0.21476 -0.30534,0.23329 -0.53277,0.0168 -0.83127,-0.0745 -0.66333,-0.2028 z m -5.2612,-7.85261 c 0.65623,-0.43735 1.43327,-0.79519 1.72677,-0.79519 0.6215,0 0.59181,0.0193 -1.40371,0.91205 l -1.51619,0.67832 1.19313,-0.79518 z m -18.86495,22.77333 c -0.98502,-0.83159 -0.7316,-1.94506 0.44268,-1.94506 0.99605,0 1.47332,-0.64918 0.73393,-0.99831 -0.36955,-0.1745 -0.45633,-0.11203 -0.23111,0.16638 0.22614,0.27956 -0.012,0.4458 -0.63868,0.4458 -0.5496,0 -1.39633,0.11641 -1.88161,0.25869 -0.60157,0.17636 -0.76605,0.11493 -0.51691,-0.19307 0.20099,-0.24847 0.83645,-0.45175 1.41213,-0.45175 0.94155,0 1.02094,-0.17453 0.79038,-1.7374 -0.14097,-0.95556 -0.53954,-1.99813 -0.88571,-2.3168 -0.70249,-0.64672 -3.0326,-0.79522 -3.0326,-0.19328 0,0.21237 -0.25528,0.38613 -0.56728,0.38613 -0.41216,0 -0.4161,-0.13917 -0.0144,-0.50898 0.40825,-0.37583 0.34484,-0.73592 -0.24237,-1.37644 -0.43738,-0.4771 -0.67347,-0.9605 -0.52462,-1.07422 0.43374,-0.33139 1.34866,0.25114 1.34866,0.85869 0,0.78435 1.84393,0.69482 2.24772,-0.10913 0.40673,-0.80982 -1.09468,-1.76657 -2.37407,-1.51284 -0.48644,0.0965 -0.88444,0.0179 -0.88444,-0.17457 0,-0.19249 0.22743,-0.34999 0.5054,-0.34999 0.9783,0 0.4918,-0.68471 -0.63175,-0.88914 -0.62543,-0.1138 -1.70571,-0.33795 -2.40063,-0.49811 -1.17432,-0.27065 -1.21027,-0.24167 -0.50936,0.41065 0.70115,0.65255 0.66564,0.68073 -0.50539,0.40106 -0.69274,-0.16545 -1.39845,-0.46572 -1.56825,-0.66728 -0.16979,-0.20155 -0.44693,-0.0912 -0.61588,0.24511 -0.21418,0.42644 -0.015,0.61158 0.65794,0.61158 1.35314,0 1.72624,0.64302 0.51367,0.88529 -0.58056,0.11599 -1.00511,0.52701 -1.00511,0.97308 0,0.56537 0.25422,0.72148 0.94889,0.58269 0.78967,-0.15777 0.90662,-0.0207 0.69703,0.81698 -0.20119,0.8041 -0.39205,0.91766 -0.94888,0.56459 -0.56646,-0.35918 -0.69704,-0.22203 -0.69704,0.73212 0,0.64576 -0.15236,1.47746 -0.33858,1.84823 -0.18716,0.37264 -0.13066,0.58169 0.12635,0.46744 0.25571,-0.11367 1.0335,0.22417 1.72842,0.75077 l 1.26349,0.95744 -1.26349,-0.45416 c -1.00967,-0.36293 -0.88425,-0.17741 0.62432,0.9235 1.0383,0.75771 2.17544,1.3715 2.52698,1.36397 0.35155,-0.008 0.0706,-0.27905 -0.62432,-0.6034 l -1.26349,-0.58971 1.26349,0.22656 c 0.69492,0.12461 1.91309,0.33467 2.70705,0.46681 0.79396,0.13213 2.02117,0.64923 2.72713,1.1491 1.55657,1.10217 2.1436,1.20061 0.90031,0.15098 z m -7.34527,-3.87573 c -0.64787,-0.31988 -0.6295,-0.37517 0.12635,-0.38022 0.48644,-0.003 0.88444,0.16785 0.88444,0.38022 0,0.47094 -0.057,0.47094 -1.01079,0 z m 3.28507,-0.38613 c -0.18975,-0.45676 -0.23127,-0.91735 -0.0923,-1.02354 0.13898,-0.10618 0.40794,0.18064 0.59769,0.6374 0.18974,0.45676 0.23127,0.91735 0.0923,1.02354 -0.13899,0.10618 -0.40795,-0.18064 -0.59769,-0.6374 z m -1.26349,-0.38614 c 0,-0.28316 0.15162,-0.399 0.33693,-0.25742 0.18531,0.14158 0.18531,0.37326 0,0.51485 -0.18531,0.14158 -0.33693,0.0257 -0.33693,-0.25743 z m 3.07228,-0.16089 c -0.0219,-0.40704 0.0975,-0.63511 0.26544,-0.5068 0.16794,0.12831 0.18589,0.46135 0.0399,0.74009 -0.16133,0.30803 -0.28109,0.21654 -0.30534,-0.23329 z m -4.95699,-3.54761 c 0.16794,-0.12831 0.60384,-0.14202 0.96868,-0.0305 0.40317,0.12326 0.28342,0.21476 -0.30535,0.23328 -0.53276,0.0168 -0.83127,-0.0745 -0.66333,-0.2028 z m 1.04238,-2.72707 c 0.18532,-0.14158 0.48855,-0.14158 0.67387,0 0.1853,0.14158 0.0337,0.25742 -0.33694,0.25742 -0.37062,0 -0.52224,-0.11584 -0.33693,-0.25742 z m 21.39288,10.58652 c -0.1402,-0.26547 -0.25492,-0.0483 -0.25492,0.48267 0,0.53093 0.11472,0.74813 0.25492,0.48266 0.1402,-0.26546 0.1402,-0.69987 0,-0.96533 z m -95.51761,-0.16089 c -0.18531,-0.14158 -0.33693,-0.0257 -0.33693,0.25742 0,0.28316 0.15162,0.39901 0.33693,0.25743 0.18531,-0.14159 0.18531,-0.37327 0,-0.51485 z m 76.48325,0.0188 c 0,-0.10619 -0.22743,-0.0857 -0.5054,0.0456 -0.27797,0.13126 -0.50539,0.32553 -0.50539,0.43171 0,0.10619 0.22742,0.0857 0.50539,-0.0456 0.27797,-0.13126 0.5054,-0.32552 0.5054,-0.43171 z m 8.20494,-1.10497 c 0.82205,-0.87227 0.30454,-0.98104 -1.08107,-0.22722 -0.80732,0.43921 -1.73045,0.79856 -2.05141,0.79856 -0.32095,0 -0.4483,0.16721 -0.28298,0.37158 0.32861,0.40623 2.78243,-0.27121 3.41546,-0.94292 z m 43.68237,0.70005 c -0.18531,-0.14158 -0.33693,-0.0257 -0.33693,0.25743 0,0.28316 0.15162,0.399 0.33693,0.25742 0.18531,-0.14158 0.18531,-0.37326 0,-0.51485 z m -75.29748,-7.71771 c -0.35999,-0.27504 -1.8595,0.32636 -1.60333,0.64304 0.13777,0.17031 -0.20806,0.21804 -0.76851,0.10606 -0.70884,-0.14162 -0.95188,-0.0425 -0.7985,0.32562 0.12127,0.29106 0.86379,2.00616 1.65005,3.81134 l 1.42955,3.28214 0.14475,-4.00817 c 0.0796,-2.20449 0.0553,-4.0765 -0.054,-4.16003 z m -1.35423,2.8079 c 0,-0.10619 0.22743,-0.30046 0.50539,-0.43171 0.27797,-0.13126 0.5054,-0.15176 0.5054,-0.0456 0,0.10619 -0.22743,0.30046 -0.5054,0.43171 -0.27796,0.13126 -0.50539,0.15177 -0.50539,0.0456 z m 34.87232,3.38406 c 0,-0.10619 -0.22743,-0.0857 -0.5054,0.0456 -0.27797,0.13126 -0.5054,0.32553 -0.5054,0.43171 0,0.10619 0.22743,0.0857 0.5054,-0.0456 0.27797,-0.13126 0.5054,-0.32553 0.5054,-0.43171 z m -3.03238,-0.7267 c 0.34604,-0.31856 0.51545,-0.5792 0.37646,-0.5792 -0.13898,0 -0.53582,0.26064 -0.88186,0.5792 -0.34603,0.31856 -0.51544,0.57921 -0.37646,0.57921 0.13898,0 0.53582,-0.26065 0.88186,-0.57921 z m 44.30637,-0.0643 c -0.18531,-0.14158 -0.33693,-0.0257 -0.33693,0.25742 0,0.28316 0.15162,0.399 0.33693,0.25742 0.18531,-0.14158 0.18531,-0.37326 0,-0.51484 z m -39.75781,-1.36099 c 0,-0.17178 -0.22742,-0.31233 -0.50539,-0.31233 -0.27797,0 -0.5054,0.15955 -0.5054,0.35455 0,0.19501 -0.13228,0.67285 -0.29396,1.06187 -0.26898,0.64725 -0.22607,0.64366 0.5054,-0.0422 0.43964,-0.41224 0.79935,-0.89009 0.79935,-1.06187 z m 7.88629,0.56451 c -0.16795,-0.1283 -0.28739,0.0998 -0.26545,0.50681 0.0243,0.44982 0.14401,0.54132 0.30534,0.23329 0.14599,-0.27875 0.12804,-0.61179 -0.0399,-0.7401 z m 17.07625,-0.60699 c 0.63964,-0.4887 1.42518,-0.82177 1.74564,-0.74015 0.32047,0.0816 0.72033,-0.12571 0.88859,-0.46071 0.16826,-0.335 0.52637,-0.505 0.7958,-0.37778 0.4844,0.22874 8.86014,-1.98621 9.68816,-2.56202 0.23581,-0.16397 -0.21905,-0.53505 -1.01079,-0.8246 -0.84923,-0.31058 -1.64802,-1.01741 -1.94798,-1.72371 -0.56823,-1.33801 -1.41511,-1.2831 -3.78741,0.24556 l -1.26349,0.81416 1.61744,-0.60244 c 2.0281,-0.7554 2.46963,-0.76156 1.66763,-0.0232 -0.50726,0.46699 -0.49477,0.57952 0.0645,0.58086 0.38149,7.7e-4 -0.3298,0.52144 -1.58066,1.15675 -1.25085,0.6353 -2.52332,1.15584 -2.82769,1.15675 -0.30438,7.7e-4 -0.96505,0.34917 -1.46817,0.77392 -0.50312,0.42475 -1.10746,0.77227 -1.34299,0.77227 -0.23553,0 0.42514,-0.62702 1.46817,-1.39338 l 1.8964,-1.39337 -1.73862,0.66898 c -0.95623,0.36794 -2.13065,1.0384 -2.60982,1.48991 -0.47916,0.45151 -1.04101,0.69167 -1.24854,0.53369 -0.20754,-0.15798 0.0572,-0.65891 0.58824,-1.11319 0.96215,-0.82302 0.96109,-0.82491 -0.29791,-0.53265 -3.9302,0.91234 -5.0318,2.19603 -3.20675,3.73681 1.12883,0.953 2.50842,0.88864 3.91028,-0.18241 z m -1.96702,-0.65599 c 1.39109,-0.45671 1.88563,-0.45671 1.51618,0 -0.17179,0.21238 -0.81064,0.37393 -1.41966,0.359 -1.06758,-0.0262 -1.07105,-0.039 -0.0965,-0.359 z m -26.91129,0.48267 c 0.76502,-0.65482 1.07882,-1.60399 0.92552,-2.79947 -0.0583,-0.45463 -0.23273,-0.41917 -0.81107,0.16488 -0.40524,0.40924 -0.85821,0.65131 -1.00661,0.53793 -0.45626,-0.34859 0.3279,-1.47508 1.02681,-1.47508 0.80675,0 0.69097,-0.86027 -0.22986,-1.70798 -0.37489,-0.34512 -0.54896,-0.72884 -0.38681,-0.85272 0.16214,-0.12388 -0.26031,-0.68263 -0.93878,-1.24167 -1.78711,-1.47251 -1.64703,-2.0064 0.31584,-1.20379 0.53766,0.21984 0.9848,0.69768 0.99364,1.06187 0.0179,0.73681 1.50011,2.42553 1.50011,1.7091 0,-0.24867 -0.36932,-1.15735 -0.82072,-2.01928 -0.60064,-1.14692 -1.29268,-1.71783 -2.58067,-2.12899 -0.96797,-0.30901 -1.96321,-0.46585 -2.21165,-0.34854 -0.24844,0.11731 -0.45171,0.0438 -0.45171,-0.16345 0,-0.20721 -0.62542,-0.55127 -1.38984,-0.76458 -0.76441,-0.2133 -1.04869,-0.40145 -0.63174,-0.41811 1.11955,-0.0447 6.06108,1.45589 6.89678,2.09439 1.07519,0.82146 2.07469,3.71695 1.853,5.36799 -0.12559,0.93534 -0.009,1.36308 0.32896,1.20365 0.6839,-0.32294 0.66456,-2.69484 -0.0378,-4.62752 -0.65132,-1.79247 -3.64427,-4.06919 -5.34928,-4.06919 -1.66606,0 -1.43909,-0.83072 0.60467,-2.21316 1.25483,-0.84878 1.67079,-1.39319 1.4303,-1.87199 -0.19965,-0.39751 -0.13692,-0.57969 0.15254,-0.44301 0.31347,0.14802 0.48715,-3.11728 0.47928,-9.01081 -0.007,-5.08363 -0.16354,-9.24296 -0.34835,-9.24296 -0.57106,0 -1.0107,3.26059 -0.68154,5.05466 0.17221,0.9386 0.12362,1.5022 -0.10827,1.25591 -0.23137,-0.24573 -0.41972,2.62132 -0.41856,6.37122 0.002,6.18343 -0.0888,6.89886 -0.97479,7.6868 -0.53729,0.47784 -1.3139,0.8688 -1.72579,0.8688 -1.7374,0 -6.53018,2.62107 -8.59383,4.69977 -0.55794,0.56201 -0.50271,0.61779 0.42758,0.43192 0.61587,-0.12305 0.96006,-0.42885 0.81277,-0.72212 -0.14052,-0.27978 0.1309,-0.58832 0.60316,-0.68564 3.89863,-0.8034 4.21305,-0.69077 4.29577,1.53882 0.0387,1.0419 0.36803,1.49259 1.44655,1.97935 1.37323,0.61976 2.32416,2.39522 1.69768,3.16969 -0.18138,0.22421 -0.001,0.29871 0.42229,0.17456 0.44901,-0.13165 0.86004,0.0756 1.04816,0.5284 0.17021,0.40974 0.81618,0.93183 1.4355,1.1602 0.90269,0.33287 0.9506,0.4204 0.24157,0.44135 -0.48644,0.0144 -0.88444,0.28678 -0.88444,0.60534 0,0.77195 0.67528,0.73229 1.64358,-0.0965 z m -1.76993,-4.2136 c 0.34746,-0.10712 0.91603,-0.10712 1.26349,0 0.34746,0.10711 0.0632,0.19476 -0.63175,0.19476 -0.69491,0 -0.9792,-0.0876 -0.63174,-0.19476 z m -2.14793,-4.76402 c -0.1718,-0.21237 -0.0715,-0.38614 0.22287,-0.38614 0.29437,0 0.53522,0.17377 0.53522,0.38614 0,0.21237 -0.10029,0.38613 -0.22287,0.38613 -0.12258,0 -0.36343,-0.17376 -0.53522,-0.38613 z M 98.4372,880.1367 c 0,-0.0937 0.22743,-0.27767 0.5054,-0.40892 0.27796,-0.13126 0.50539,-0.0546 0.50539,0.17028 0,0.2249 -0.22743,0.40892 -0.50539,0.40892 -0.27797,0 -0.5054,-0.0766 -0.5054,-0.17028 z m 5.15249,-8.51774 c -0.0103,-0.63713 0.0945,-0.94451 0.23298,-0.68309 0.13844,0.26143 0.14686,0.78271 0.0188,1.15841 -0.12814,0.37569 -0.24141,0.1618 -0.25171,-0.47532 z m 2.93384,17.7166 c 0,-0.10619 -0.22742,-0.0857 -0.50539,0.0456 -0.27797,0.13125 -0.5054,0.32552 -0.5054,0.43171 0,0.10618 0.22743,0.0857 0.5054,-0.0456 0.27797,-0.13125 0.50539,-0.32552 0.50539,-0.43171 z m -4.21163,-0.79105 c -0.18531,-0.14158 -0.33693,-0.0257 -0.33693,0.25742 0,0.28317 0.15162,0.39901 0.33693,0.25743 0.18531,-0.14159 0.18531,-0.37327 0,-0.51485 z m 7.69129,-4.18312 c 0.0234,-1.48662 -0.16895,-2.95855 -0.42754,-3.27096 -0.78683,-0.95057 -1.03156,-0.24928 -0.43301,1.24078 0.41776,1.03996 0.41491,1.97562 -0.011,3.59573 -0.31661,1.20448 -0.41725,2.38579 -0.22365,2.62512 0.55481,0.68586 1.04799,-1.20136 1.09515,-4.19067 z m -19.7966,0.66882 c -0.11532,-0.58023 -0.20735,-0.0124 -0.20451,1.26185 0.003,1.27424 0.0972,1.74897 0.20966,1.05496 0.11249,-0.69402 0.11017,-1.73659 -0.005,-2.31681 z m 58.09634,2.74203 c -0.18531,-0.14158 -0.33693,-0.0257 -0.33693,0.25743 0,0.28316 0.15162,0.399 0.33693,0.25742 0.18531,-0.14158 0.18531,-0.37326 0,-0.51485 z m -46.49642,-0.38613 c -0.18532,-0.14158 -0.33693,-0.0257 -0.33693,0.25742 0,0.28317 0.15161,0.39901 0.33693,0.25743 0.18531,-0.14159 0.18531,-0.37327 0,-0.51485 z m 5.52777,-0.41027 c -0.16795,-0.12831 -0.28739,0.0997 -0.26545,0.5068 0.0243,0.44983 0.14401,0.54132 0.30534,0.23329 0.14599,-0.27874 0.12804,-0.61178 -0.0399,-0.74009 z m 10.10791,-0.38613 c -0.16794,-0.12831 -0.28739,0.0997 -0.26544,0.5068 0.0243,0.44982 0.144,0.54132 0.30534,0.23329 0.14599,-0.27875 0.12804,-0.61179 -0.0399,-0.74009 z m 7.10713,0.41026 c -0.18531,-0.14158 -0.33693,-0.0257 -0.33693,0.25743 0,0.28316 0.15162,0.399 0.33693,0.25742 0.18531,-0.14158 0.18531,-0.37326 0,-0.51485 z M 18.92158,886.2277 c -0.18532,-0.14158 -0.33693,-0.0257 -0.33693,0.25743 0,0.28316 0.15161,0.399 0.33693,0.25742 0.18531,-0.14158 0.18531,-0.37326 0,-0.51485 z m 51.55038,-1.1584 c -0.18531,-0.14158 -0.33693,-0.0257 -0.33693,0.25743 0,0.28316 0.15162,0.399 0.33693,0.25742 0.18531,-0.14158 0.18531,-0.37326 0,-0.51485 z m 5.86728,-1.34143 c 2.8365,-0.65535 3.88969,-1.06955 3.7853,-1.4887 -0.0795,-0.3194 -0.63176,-0.63402 -1.22715,-0.69916 -0.64102,-0.0701 -1.33568,-0.58535 -1.70319,-1.26322 -0.34135,-0.62963 -0.79793,-1.2285 -1.01462,-1.33082 -0.63985,-0.30213 -2.02331,0.24925 -1.68249,0.67057 0.19654,0.24298 -0.11028,0.28438 -0.82429,0.11124 -0.68754,-0.16672 -1.01845,-0.12879 -0.83668,0.0959 0.17795,0.21998 -0.25939,0.28992 -1.07137,0.17133 -1.35436,-0.19781 -1.34602,-0.20917 0.64705,-0.88092 1.1105,-0.37429 2.41709,-0.69342 2.90354,-0.70917 0.48644,-0.0158 0.88444,-0.30098 0.88444,-0.63386 0,-0.44994 -0.29175,-0.53618 -1.13714,-0.33612 -2.26555,0.53612 -6.08397,2.17939 -5.6376,2.42615 0.25151,0.13904 0.50519,0.60032 0.56374,1.02507 0.26796,1.94406 1.4024,4.37995 1.89718,4.07366 0.28784,-0.17819 2.29182,-0.73257 4.45328,-1.23197 z m -3.17184,-2.42838 c 0,-0.10619 0.45486,-0.37906 1.0108,-0.60638 0.55593,-0.22731 1.01079,-0.32642 1.01079,-0.22024 0,0.10619 -0.45486,0.37906 -1.01079,0.60638 -0.55594,0.22732 -1.0108,0.32642 -1.0108,0.22024 z m 2.19005,-2.0222 c 0.18531,-0.14158 0.48855,-0.14158 0.67387,0 0.1853,0.14158 0.0337,0.25742 -0.33694,0.25742 -0.37062,0 -0.52224,-0.11584 -0.33693,-0.25742 z m 74.1679,5.49062 c 0.64414,0.30416 0.57804,-0.8647 -0.10632,-1.87991 -0.7913,-1.17386 -2.53246,-2.58219 -3.18367,-2.57511 -0.37674,0.004 -0.37282,0.093 0.0128,0.2896 0.30603,0.15603 0.67479,0.71809 0.81945,1.24903 0.14466,0.53093 0.43659,1.31285 0.64871,1.7376 0.38568,0.77227 0.38568,0.77227 -0.46828,0 -0.83204,-0.75244 -0.83857,-0.74817 -0.25417,0.16612 0.55555,0.86917 0.64725,0.88883 1.24285,0.2665 0.37195,-0.38863 0.77352,-0.51061 0.95251,-0.28934 0.1702,0.21041 0.0783,0.4917 -0.20418,0.6251 -0.2825,0.13339 -0.49568,0.44948 -0.47374,0.70241 0.0286,0.32916 0.11266,0.322 0.29587,-0.0252 0.14078,-0.26679 0.46397,-0.38686 0.71819,-0.26681 z m -31.54618,-0.47088 c -0.18531,-0.14158 -0.33693,-0.0257 -0.33693,0.25743 0,0.28316 0.15162,0.399 0.33693,0.25742 0.18531,-0.14158 0.18531,-0.37326 0,-0.51485 z M 69.96656,883.9109 c -0.18531,-0.14158 -0.33693,-0.0257 -0.33693,0.25742 0,0.28317 0.15162,0.39901 0.33693,0.25743 0.18531,-0.14159 0.18531,-0.37327 0,-0.51485 z m 7.07555,0.38613 c -0.18532,-0.14158 -0.48855,-0.14158 -0.67387,0 -0.18531,0.14159 -0.0337,0.25743 0.33694,0.25743 0.37062,0 0.52224,-0.11584 0.33693,-0.25743 z m -58.6002,-3.11594 c -0.11617,-0.58695 -0.21432,-0.19838 -0.21811,0.86349 -0.004,1.06187 0.0913,1.5421 0.21121,1.06718 0.11997,-0.47492 0.12307,-1.34372 0.007,-1.93067 z m 119.22033,1.40429 c 1.08059,-0.65824 2.76072,-1.52032 3.73361,-1.91573 0.97289,-0.39542 2.06087,-0.86987 2.41775,-1.05434 0.76577,-0.39584 0.24971,-1.73705 -0.52721,-1.37019 -0.31361,0.14808 -0.38006,0.0645 -0.16252,-0.20443 0.49885,-0.61668 -1.21479,-3.96114 -1.87088,-3.65134 -0.29641,0.13997 -0.3657,0.0558 -0.16168,-0.19643 0.3566,-0.44083 -3.01075,-7.79529 -4.87386,-10.64475 -1.39044,-2.12657 -7.33241,-8.78633 -8.55887,-9.59279 -0.56347,-0.37052 -1.26338,-0.56087 -1.55534,-0.42301 -0.30362,0.14337 -0.38159,0.0662 -0.18217,-0.18038 0.47014,-0.58119 -4.29049,-1.5603 -7.39439,-1.5208 -1.32034,0.0168 -2.40168,0.13192 -2.40297,0.25581 -0.002,0.12388 0.3805,1.6366 0.84842,3.3616 0.82039,3.02442 0.88416,3.11258 1.78656,2.47026 1.18127,-0.84083 6.14148,-2.71061 7.19077,-2.71061 1.42526,0 0.82809,0.74169 -1.24901,1.55129 -1.1214,0.4371 -2.29368,0.67442 -2.60506,0.52739 -0.33541,-0.15838 -0.42557,-0.0935 -0.22122,0.15909 0.36404,0.45002 -1.42827,1.38233 -2.71574,1.41265 -0.99676,0.0235 -0.93951,1.86975 0.30198,9.74013 l 0.25451,1.61345 2.12239,-0.73617 c 2.95563,-1.02519 4.12932,-0.94205 5.49717,0.38941 l 1.17377,1.14254 3.50878,-0.93816 c 4.26755,-1.14104 5.68222,-0.9594 6.67565,0.85716 0.88099,1.61095 1.70559,4.79815 1.17678,4.54845 -0.20937,-0.0989 -0.66391,0.081 -1.01009,0.3997 -0.68236,0.62817 -3.96856,1.82701 -6.15273,2.24458 l -1.36098,0.26019 1.15181,2.02539 c 0.63349,1.11395 1.29565,2.32946 1.47146,2.70111 0.46247,0.97764 1.4652,0.83617 3.69331,-0.52107 z m -1.57305,-14.6347 c -0.17179,-0.21237 -0.19863,-0.38613 -0.0596,-0.38613 0.13898,0 0.39325,0.17376 0.56505,0.38613 0.17179,0.21237 0.19863,0.38613 0.0596,0.38613 -0.13898,0 -0.39325,-0.17376 -0.56505,-0.38613 z m -1.51619,-2.31681 c -0.17179,-0.21237 -0.19863,-0.38613 -0.0597,-0.38613 0.13899,0 0.39326,0.17376 0.56505,0.38613 0.1718,0.21238 0.19864,0.38614 0.0597,0.38614 -0.13898,0 -0.39325,-0.17376 -0.56505,-0.38614 z m -1.26348,-1.93067 c 0,-0.28316 0.15161,-0.399 0.33693,-0.25742 0.18531,0.14158 0.18531,0.37326 0,0.51485 -0.18532,0.14158 -0.33693,0.0257 -0.33693,-0.25743 z m -0.7581,-1.1584 c -0.17179,-0.21237 -0.19863,-0.38614 -0.0597,-0.38614 0.13898,0 0.39325,0.17377 0.56505,0.38614 0.17179,0.21237 0.19863,0.38613 0.0597,0.38613 -0.13898,0 -0.39325,-0.17376 -0.56505,-0.38613 z m -2.84414,-4.15094 c -0.62865,-0.61244 -0.61078,-0.62609 0.19081,-0.14579 0.48645,0.29147 0.88445,0.59555 0.88445,0.67573 0,0.31781 -0.41503,0.11326 -1.07526,-0.52994 z m -2.20982,-1.64108 c -0.17179,-0.21237 -0.19863,-0.38613 -0.0597,-0.38613 0.13898,0 0.39325,0.17376 0.56505,0.38613 0.17179,0.21238 0.19863,0.38614 0.0597,0.38614 -0.13898,0 -0.39325,-0.17376 -0.56505,-0.38614 z m 11.87681,26.0185 c 0,-0.10619 -0.22743,-0.0857 -0.5054,0.0456 -0.27797,0.13126 -0.5054,0.32553 -0.5054,0.43171 0,0.10619 0.22743,0.0857 0.5054,-0.0456 0.27797,-0.13126 0.5054,-0.32553 0.5054,-0.43171 z m -55.56732,-2.61992 c -0.36627,-0.52288 -0.50998,-1.26119 -0.31937,-1.6407 0.19061,-0.37951 0.17579,-0.55954 -0.0329,-0.40007 -0.20872,0.15946 -0.66754,-0.10647 -1.0196,-0.59098 -0.59682,-0.82135 -0.64235,-0.8287 -0.67337,-0.10864 -0.0306,0.71054 -0.0745,0.71826 -0.54842,0.0965 -0.28333,-0.37166 -0.90184,-0.67308 -1.37447,-0.66983 -0.73956,0.005 -0.75367,0.0581 -0.10124,0.38022 0.68199,0.33674 0.36665,0.55231 -0.63174,0.43186 -0.20848,-0.0251 -0.37905,0.31206 -0.37905,0.74934 0,0.43728 0.2036,0.69892 0.45244,0.58141 0.57884,-0.27332 1.17396,0.87784 0.7346,1.42098 -0.18835,0.23283 -0.0947,0.29868 0.21614,0.15192 0.30171,-0.14246 0.7028,-0.0683 0.89132,0.16469 0.18851,0.23305 0.88651,0.31945 1.5511,0.19201 0.71452,-0.13701 1.20836,-0.0616 1.20836,0.18457 0,0.22895 -0.18952,0.32679 -0.42116,0.21741 -0.23164,-0.10938 -0.42117,0.0624 -0.42117,0.38173 0,0.51426 0.0877,0.51362 0.76725,-0.006 0.65032,-0.49686 0.66576,-0.73106 0.10131,-1.53687 z m -1.71088,1.44273 c -0.18532,-0.14158 -0.48855,-0.14158 -0.67387,0 -0.18531,0.14159 -0.0337,0.25743 0.33693,0.25743 0.37063,0 0.52225,-0.11584 0.33694,-0.25743 z m 14.50231,-0.32178 c -0.16,-0.31856 -0.60772,-0.5792 -0.99493,-0.5792 -0.87539,0 -0.92658,0.6393 -0.0723,0.90268 1.11594,0.34403 1.36461,0.26866 1.06721,-0.32348 z m 49.68297,-0.0643 c -0.18532,-0.14158 -0.33694,-0.0257 -0.33694,0.25742 0,0.28317 0.15162,0.39901 0.33694,0.25743 0.1853,-0.14159 0.1853,-0.37327 0,-0.51485 z m -25.7752,-0.38614 c -0.18531,-0.14158 -0.33693,-0.0257 -0.33693,0.25743 0,0.28316 0.15162,0.399 0.33693,0.25742 0.18531,-0.14158 0.18531,-0.37326 0,-0.51485 z m -12.35675,-1.94061 c -0.55626,-0.59626 -1.53871,-1.43163 -2.18323,-1.85637 l -1.17185,-0.77227 0.94476,1.1584 c 1.00098,1.22732 2.93567,2.80934 3.24022,2.64955 0.0998,-0.0524 -0.27364,-0.58306 -0.8299,-1.17931 z m 11.66073,0.26698 c -0.36366,-1.06247 -0.6517,-0.96689 -0.6517,0.21624 0,0.54347 0.20607,0.89082 0.45795,0.77189 0.25187,-0.11894 0.33906,-0.56359 0.19375,-0.98813 z m -35.69248,0.1291 c -0.18531,-0.14158 -0.33693,-0.0257 -0.33693,0.25742 0,0.28316 0.15162,0.399 0.33693,0.25742 0.18531,-0.14158 0.18531,-0.37326 0,-0.51484 z M 71.77413,877.6562 c 1.51389,-0.60843 3.0047,-1.17316 3.3129,-1.25494 0.51247,-0.13598 1.13358,-2.26416 3.35885,-11.50887 0.43045,-1.78825 0.6701,-3.33733 0.53257,-3.44241 -0.13753,-0.10507 -2.9227,0.82148 -6.18927,2.05901 -3.26658,1.23752 -6.62151,2.27098 -7.45541,2.29656 -1.35185,0.0415 -1.53165,0.19165 -1.65876,1.38542 -0.0797,0.74842 0.034,1.13954 0.25776,0.88685 0.62916,-0.71043 5.46011,-2.44395 6.81081,-2.44395 1.69173,0 2.64563,0.68984 3.6149,2.61423 1.51113,3.00018 1.05849,4.30735 -1.69647,4.89928 -0.69492,0.14931 -2.22758,0.60498 -3.40592,1.0126 -2.51643,0.8705 -2.98082,0.90611 -3.37015,0.25845 -0.15958,-0.26547 -0.14847,-0.0483 0.0247,0.48267 0.17316,0.53093 0.49943,1.02 0.72504,1.08682 0.22561,0.0668 0.29618,0.34849 0.15682,0.62594 -0.13935,0.27746 0.09,0.76683 0.50972,1.08749 0.41971,0.32066 0.62231,0.69059 0.45023,0.82206 -0.83256,0.6361 1.57051,0.11792 4.02168,-0.86721 z m -2.18091,0.17443 c 0.46268,-0.42594 0.47212,-0.76297 0.0387,-1.38172 -0.31529,-0.4501 -0.47189,-1.02592 -0.34801,-1.27962 0.23762,-0.48663 1.35651,1.34904 1.35651,2.22551 0,0.28201 -0.37332,0.6222 -0.82958,0.75597 -0.67926,0.19915 -0.71869,0.14113 -0.21763,-0.32014 z m -5.52294,-11.42449 c 0,-0.28316 0.15162,-0.399 0.33693,-0.25742 0.18531,0.14158 0.18531,0.37326 0,0.51485 -0.18531,0.14158 -0.33693,0.0257 -0.33693,-0.25743 z m 1.01079,0 c 0,-0.28316 0.15162,-0.399 0.33693,-0.25742 0.18531,0.14158 0.18531,0.37326 0,0.51485 -0.18531,0.14158 -0.33693,0.0257 -0.33693,-0.25743 z m 64.69067,10.77281 c 1.80679,-0.45047 4.04877,-1.06653 4.98217,-1.36901 l 1.69709,-0.54996 -1.31805,-0.93328 c -0.87973,-0.62291 -1.31804,-1.33531 -1.31804,-2.14228 0,-0.80418 -0.21154,-1.14976 -0.63174,-1.03204 -0.34746,0.0973 -0.57489,0.37246 -0.5054,0.61138 0.0695,0.23892 -0.1145,0.4344 -0.40888,0.4344 -0.29437,0 -0.39891,0.1685 -0.23232,0.37445 0.1666,0.20594 -0.54585,0.64539 -1.58321,0.97655 -2.61302,0.83415 -4.43103,1.15369 -4.07752,0.71668 0.16903,-0.20896 -0.45571,-0.295 -1.47921,-0.20371 -2.19182,0.1955 -2.91765,1.30567 -1.87391,2.86617 0.88333,1.32068 2.25322,1.37155 6.74902,0.25065 z m -21.98472,0.0389 c -0.17179,-0.21237 -0.42606,-0.38613 -0.56504,-0.38613 -0.13899,0 -0.11215,0.17376 0.0597,0.38613 0.17179,0.21238 0.42606,0.38614 0.56504,0.38614 0.13899,0 0.11215,-0.17376 -0.0596,-0.38614 z m 25.85943,-0.25742 c -0.18532,-0.14158 -0.48855,-0.14158 -0.67387,0 -0.18531,0.14158 -0.0337,0.25742 0.33694,0.25742 0.37062,0 0.52224,-0.11584 0.33693,-0.25742 z m -29.6499,-0.51484 c 0,-0.21238 -0.214,-0.38614 -0.47556,-0.38614 -0.26157,0 -0.61613,0.17376 -0.78793,0.38614 -0.17179,0.21237 0.0422,0.38613 0.47557,0.38613 0.43336,0 0.78792,-0.17376 0.78792,-0.38613 z m -22.5682,-0.28961 c 0.12884,-0.15928 -0.40459,-0.2896 -1.1854,-0.2896 -0.78082,0 -1.31425,0.13032 -1.1854,0.2896 0.12884,0.15929 0.66227,0.28961 1.1854,0.28961 0.52312,0 1.05655,-0.13032 1.1854,-0.28961 z m -3.26944,-1.47749 c 0.19613,0.0926 0.25151,-0.47103 0.12307,-1.25253 -0.21522,-1.30942 -0.26246,-1.34517 -0.6021,-0.45558 -0.41637,1.09059 -0.52719,2.77079 -0.13354,2.0248 0.14077,-0.2668 0.41643,-0.4093 0.61257,-0.31669 z m 60.20456,0.31544 c 0,-0.16129 -0.51171,-0.53342 -1.13714,-0.82697 -1.1331,-0.53181 -1.13372,-0.53077 -0.17436,0.29326 1.03003,0.88474 1.3115,0.99928 1.3115,0.53371 z m -67.98964,-2.29562 c 0.54829,-0.27511 0.71886,-0.52192 0.37905,-0.54847 -0.33982,-0.0265 -1.01585,-0.0726 -1.50229,-0.10244 -1.14295,-0.07 -2.14794,-0.56283 -2.14794,-1.05327 0,-0.21237 0.22483,-0.27998 0.49961,-0.15023 0.27479,0.12976 0.38257,0.003 0.23951,-0.28193 -0.22633,-0.45064 -2.2553,-0.88481 -2.2553,-0.48261 0,0.0825 0.24364,1.01805 0.54143,2.07892 0.53432,1.90353 0.5592,1.92302 1.89523,1.48454 0.74459,-0.24437 1.80241,-0.6694 2.3507,-0.94451 z m 68.29499,0.37664 c -0.16794,-0.12831 -0.28739,0.0998 -0.26544,0.5068 0.0242,0.44983 0.144,0.54133 0.30534,0.2333 0.14599,-0.27875 0.12804,-0.61179 -0.0399,-0.7401 z m -0.97302,-0.6329 c -0.0657,-0.94488 -0.28588,-1.24376 -0.80507,-1.09278 -0.5095,0.14815 -0.59046,0.0504 -0.28204,-0.34048 0.36929,-0.46801 0.30743,-0.4707 -0.42248,-0.0183 -0.47031,0.29147 -0.85163,0.72587 -0.84737,0.96534 0.004,0.23946 0.25008,0.17474 0.54627,-0.14382 0.41028,-0.44126 0.46497,-0.30333 0.22961,0.57921 -0.21982,0.82425 -0.16656,0.99444 0.18463,0.59002 0.42411,-0.48841 0.54055,-0.47483 0.82752,0.0965 0.50099,0.99748 0.66939,0.80932 0.56893,-0.63568 z m -3.03856,-0.11523 c -0.18531,-0.14158 -0.33693,-0.0257 -0.33693,0.25742 0,0.28317 0.15162,0.39901 0.33693,0.25743 0.18531,-0.14159 0.18531,-0.37327 0,-0.51485 z m -62.50063,-0.32178 c -0.51528,-0.47437 -0.48075,-0.5792 0.19082,-0.5792 0.45098,0 0.81997,0.18402 0.81997,0.40892 0,0.22491 0.22743,0.30154 0.5054,0.17028 0.80697,-0.38104 0.56269,-2.18751 -0.52215,-3.86134 -0.79478,-1.2263 -0.94626,-1.32575 -0.73521,-0.48267 0.30445,1.21614 -0.53295,1.45462 -1.01692,0.2896 -0.37958,-0.91373 -1.26349,-1.03285 -1.26349,-0.17028 0,0.3311 -0.22743,0.4946 -0.5054,0.36335 -0.28777,-0.13589 -0.50539,0.19665 -0.50539,0.77227 0,0.5678 0.21898,0.9075 0.49961,0.775 0.28379,-0.13401 0.37277,0.0166 0.20597,0.3487 -0.17524,0.34891 0.26438,0.97972 1.09038,1.56459 1.52712,1.08132 2.21941,1.30572 1.23641,0.40078 z m -7.244,-0.45049 c -0.18532,-0.14158 -0.33694,-0.0257 -0.33694,0.25742 0,0.28317 0.15162,0.39901 0.33694,0.25743 0.1853,-0.14159 0.1853,-0.37327 0,-0.51485 z m 13.78716,-1.03853 c -0.48662,-0.34267 -0.55387,-0.28314 -0.30009,0.26567 0.17989,0.38902 0.35346,0.9103 0.3857,1.1584 0.0323,0.24809 0.16729,0.12855 0.3001,-0.26567 0.13281,-0.39421 -0.0407,-0.91549 -0.38571,-1.1584 z m 50.90351,1.03853 c -0.18531,-0.14158 -0.48855,-0.14158 -0.67386,0 -0.18531,0.14158 -0.0337,0.25742 0.33693,0.25742 0.37062,0 0.52224,-0.11584 0.33693,-0.25742 z m -111.16736,-2.542 c -0.12046,-0.47784 -0.21902,-0.0869 -0.21902,0.8688 0,0.95568 0.0986,1.34665 0.21902,0.8688 0.12047,-0.47784 0.12047,-1.25976 0,-1.7376 z m 112.68355,2.15591 c -0.18532,-0.14158 -0.48855,-0.14158 -0.67387,0 -0.18531,0.14159 -0.0337,0.25743 0.33694,0.25743 0.37062,0 0.52224,-0.11584 0.33693,-0.25743 z m 2.7902,-0.77861 c -0.36483,-0.11154 -0.80074,-0.0978 -0.96867,0.0305 -0.16794,0.12831 0.13056,0.21958 0.66333,0.20281 0.58876,-0.0185 0.70851,-0.11003 0.30534,-0.23329 z m 2.02159,-0.38614 c -0.36484,-0.11154 -0.80074,-0.0978 -0.96868,0.0305 -0.16794,0.12831 0.13056,0.21957 0.66333,0.20281 0.58876,-0.0185 0.70852,-0.11003 0.30535,-0.23329 z m -56.48251,-1.44625 c -0.18589,-0.56588 -0.43546,-0.95441 -0.55458,-0.86339 -0.11914,0.091 -0.0645,0.62848 0.12139,1.19436 0.18589,0.56589 0.43546,0.95442 0.55458,0.8634 0.11914,-0.091 0.0645,-0.62848 -0.12139,-1.19437 z m -12.3461,-0.49588 c 0,-0.56475 -0.11064,-0.58853 -1.22215,-0.26265 -1.13497,0.33275 -0.99171,0.88709 0.21136,0.81785 0.55594,-0.032 1.01079,-0.28184 1.01079,-0.5552 z m 51.3797,-1.75197 c -0.1402,-0.26547 -0.25492,-0.0483 -0.25492,0.48267 0,0.53093 0.11472,0.74813 0.25492,0.48266 0.1402,-0.26546 0.1402,-0.69986 0,-0.96533 z m -47.21018,0.22694 c -0.34746,-0.10712 -0.91603,-0.10712 -1.26349,0 -0.34746,0.10712 -0.0632,0.19476 0.63174,0.19476 0.69492,0 0.97921,-0.0876 0.63175,-0.19476 z m -5.48612,-3.70215 c 0.36147,-1.18076 0.009,-1.30428 -1.398,-0.49012 -0.705,0.40791 -0.85831,0.81326 -0.60232,1.59252 0.29091,0.88553 0.4452,0.96233 1.00932,0.5024 0.36626,-0.29861 0.81221,-1.02077 0.991,-1.6048 z m 52.19312,-0.16089 c -0.18531,-0.14158 -0.33693,-0.0257 -0.33693,0.25742 0,0.28317 0.15162,0.39901 0.33693,0.25743 0.18531,-0.14159 0.18531,-0.37327 0,-0.51485 z m -53.66245,-1.29484 c -0.42978,-0.53131 5.19438,-3.11295 9.00197,-4.13214 3.20874,-0.8589 5.79564,-0.89913 5.13288,-0.0798 -0.15942,0.19708 -0.0624,0.35833 0.21554,0.35833 0.27796,0 0.61236,-0.13223 0.7431,-0.29386 0.85524,-1.05726 -5.2276,-3.57038 -9.32972,-3.85457 -3.3949,-0.2352 -4.88405,-0.004 -6.59378,1.02346 -1.21732,0.73158 -1.2411,0.83962 -0.83065,3.7732 0.2324,1.66103 0.64709,3.07833 0.92153,3.14956 0.27444,0.0712 0.34872,0.31528 0.16505,0.54233 -0.19904,0.24605 -0.0949,0.29994 0.25779,0.13341 0.32545,-0.15368 0.46779,-0.43264 0.31629,-0.61991 z m -1.93109,-0.2497 c -0.18532,-0.14158 -0.33694,-0.0257 -0.33694,0.25743 0,0.28316 0.15162,0.399 0.33694,0.25742 0.1853,-0.14158 0.1853,-0.37326 0,-0.51485 z m 3.70623,-0.36735 c 0,-0.10619 -0.22743,-0.0857 -0.50539,0.0456 -0.27797,0.13126 -0.5054,0.32553 -0.5054,0.43171 0,0.10619 0.22743,0.0857 0.5054,-0.0456 0.27796,-0.13126 0.50539,-0.32552 0.50539,-0.43171 z m 51.38192,-0.0188 c -0.18532,-0.14159 -0.33693,-0.0258 -0.33693,0.25741 0,0.28317 0.15161,0.39901 0.33693,0.25743 0.18531,-0.14159 0.18531,-0.37327 0,-0.51485 z m -48.85494,-1.13963 c 0,-0.10619 -0.22743,-0.0857 -0.5054,0.0456 -0.27796,0.13126 -0.50539,0.32552 -0.50539,0.43171 0,0.10619 0.22743,0.0857 0.50539,-0.0456 0.27797,-0.13126 0.5054,-0.32553 0.5054,-0.43171 z m 4.04317,-0.53363 c 0.97289,-0.40694 1.62609,-0.74718 1.45156,-0.75608 -0.52303,-0.0267 -3.97854,1.13757 -3.97854,1.34046 0,0.33677 0.72635,0.16879 2.52698,-0.58438 z m -2.52698,-0.23864 c 0,-0.10619 -0.22743,-0.0857 -0.5054,0.0456 -0.27797,0.13126 -0.50539,0.32553 -0.50539,0.43171 0,0.10619 0.22742,0.0857 0.50539,-0.0456 0.27797,-0.13126 0.5054,-0.32553 0.5054,-0.43171 z M 19.93237,858.426 c -0.18531,-0.14158 -0.33693,-0.0257 -0.33693,0.25743 0,0.28316 0.15162,0.399 0.33693,0.25742 0.18531,-0.14158 0.18531,-0.37326 0,-0.51485 z m 41.91627,-0.41027 c -0.16794,-0.1283 -0.28739,0.0998 -0.26544,0.50681 0.0243,0.44982 0.14401,0.54132 0.30534,0.23329 0.14599,-0.27875 0.12804,-0.61179 -0.0399,-0.7401 z m 71.71357,0.6677 c -0.17179,-0.21238 -0.42606,-0.38614 -0.56504,-0.38614 -0.13899,0 -0.11215,0.17376 0.0596,0.38614 0.17179,0.21237 0.42606,0.38613 0.56505,0.38613 0.13898,0 0.11214,-0.17376 -0.0597,-0.38613 z M 71.48275,858.426 c -0.18531,-0.14158 -0.48855,-0.14158 -0.67386,0 -0.18531,0.14159 -0.0337,0.25743 0.33693,0.25743 0.37062,0 0.52224,-0.11584 0.33693,-0.25743 z m 49.19187,-0.32178 c 0.34604,-0.31856 0.51545,-0.5792 0.37646,-0.5792 -0.13898,0 -0.53582,0.26064 -0.88186,0.5792 -0.34604,0.31857 -0.51545,0.57921 -0.37646,0.57921 0.13898,0 0.53582,-0.26064 0.88186,-0.57921 z m -46.66489,-0.45049 c -0.18531,-0.14158 -0.48855,-0.14158 -0.67386,0 -0.18531,0.14159 -0.0337,0.25743 0.33693,0.25743 0.37062,0 0.52224,-0.11584 0.33693,-0.25743 z m 2.94814,-0.51484 c 0.63713,-0.20918 0.73054,-0.33186 0.2527,-0.33186 -0.41695,0 -1.21295,0.14934 -1.76888,0.33186 -0.63713,0.20918 -0.73054,0.33185 -0.2527,0.33185 0.41695,0 1.21295,-0.14933 1.76888,-0.33185 z m 48.04237,-0.98664 c 0.92503,-0.56622 0.9089,-0.57426 -0.28246,-0.14076 -1.54703,0.56291 -1.83374,0.74126 -1.19162,0.74126 0.27117,0 0.9345,-0.27022 1.47408,-0.6005 z m 4.01341,-2.48857 c -0.17179,-0.21237 -0.42606,-0.38614 -0.56505,-0.38614 -0.13898,0 -0.11214,0.17377 0.0597,0.38614 0.1718,0.21237 0.42607,0.38613 0.56505,0.38613 0.13899,0 0.11214,-0.17376 -0.0597,-0.38613 z m -24.71097,-0.61205 c -0.16907,-0.33664 -0.43444,-1.5964 -0.5897,-2.79948 -0.40199,-3.11489 -2.76529,-10.53952 -3.64607,-11.45464 -0.74329,-0.77227 -0.74329,-0.77227 -0.37313,0 0.20358,0.42474 0.41156,1.03291 0.46218,1.35147 0.32611,2.05266 1.54171,6.43861 1.87842,6.77744 0.22203,0.22343 0.26367,0.81532 0.0925,1.31532 -0.18311,0.53496 -0.11284,0.81544 0.17074,0.68153 0.28026,-0.13233 0.50866,0.64546 0.54584,1.85875 0.0352,1.14746 0.20869,2.26525 0.38563,2.48398 0.51534,0.63707 1.41134,0.45815 1.07356,-0.21437 z M 60.88089,850.285 c -0.12712,-0.37165 -0.23113,-0.0676 -0.23113,0.67574 0,0.74331 0.10401,1.04739 0.23113,0.67573 0.12712,-0.37165 0.12712,-0.97981 0,-1.35147 z m -1.61187,-3.1856 c -0.1718,-0.21238 -0.42607,-0.38614 -0.56505,-0.38614 -0.13899,0 -0.11214,0.17376 0.0596,0.38614 0.17179,0.21237 0.42606,0.38613 0.56505,0.38613 0.13898,0 0.11214,-0.17376 -0.0597,-0.38613 z m 17.18346,-0.77227 c -0.1718,-0.21238 -0.42607,-0.38614 -0.56505,-0.38614 -0.13898,0 -0.11214,0.17376 0.0596,0.38614 0.17179,0.21237 0.42606,0.38613 0.56505,0.38613 0.13898,0 0.11214,-0.17376 -0.0597,-0.38613 z m -16.42537,-1.01091 c 0,-0.10619 -0.22743,-0.0857 -0.5054,0.0456 -0.27796,0.13126 -0.50539,0.0257 -0.50539,-0.23463 0,-0.26031 -0.13649,-0.369 -0.30331,-0.24155 -0.45395,0.34683 0.29985,1.1026 0.84363,0.84582 0.25876,-0.12218 0.47047,-0.30903 0.47047,-0.41521 z m 0.12005,-3.94063 c -0.21245,-0.42299 -0.0966,-0.49113 0.42581,-0.2505 0.5669,0.26111 0.59927,0.21358 0.15414,-0.22626 -0.88124,-0.87075 -1.42968,-25.47918 -0.5863,-26.30722 0.35442,-0.34797 2.62327,-1.59899 5.04188,-2.78005 2.41863,-1.18106 4.63605,-2.48793 4.92761,-2.90417 0.60998,-0.87079 0.6288,-8.24754 0.0247,-9.68865 -0.2499,-0.5962 -0.4239,0.99781 -0.45501,4.16849 -0.0587,5.98228 0.0552,5.82064 -6.0111,8.52752 -2.00826,0.89611 -3.97514,2.01163 -4.37084,2.47893 -0.60829,0.71836 -0.6497,2.69911 -0.26804,12.8198 0.24828,6.58359 0.46395,12.83896 0.47928,13.90083 0.0186,1.28727 0.17814,1.74932 0.47878,1.38649 0.24799,-0.2993 0.31957,-0.80565 0.15907,-1.12521 z m 39.13237,-4.57311 c -0.18532,-0.14158 -0.33693,-0.0257 -0.33693,0.25742 0,0.28317 0.15161,0.39901 0.33693,0.25743 0.18531,-0.14159 0.18531,-0.37327 0,-0.51485 z m -0.5054,-1.1584 c -0.18531,-0.14158 -0.33693,-0.0257 -0.33693,0.25742 0,0.28316 0.15162,0.399 0.33693,0.25742 0.18531,-0.14158 0.18531,-0.37326 0,-0.51484 z m -26.16211,-11.4459 c -0.0275,-2.37668 -0.22743,-5.27691 -0.44433,-6.44496 -0.28379,-1.52834 -0.39929,-0.25571 -0.41197,4.53935 -0.0104,3.92956 0.17191,6.5736 0.44434,6.44496 0.25407,-0.11997 0.43946,-2.16268 0.41196,-4.53935 z m 20.09736,0.63416 c -0.18531,-0.14158 -0.48855,-0.14158 -0.67386,0 -0.18531,0.14159 -0.0337,0.25743 0.33693,0.25743 0.37062,0 0.52224,-0.11584 0.33693,-0.25743 z"
       id="path3866"
       inkscape:connector-curvature="0" />
    <text
       sodipodi:linespacing="125%"
       id="text3826"
       y="827.36218"
       x="190"
       style="font-size:20px;font-style:normal;font-variant:normal;font-weight:bold;font-stretch:normal;line-height:125%;letter-spacing:0px;word-spacing:0px;fill:none;fill-opacity:1;stroke:#000000;font-family:Arial;-inkscape-font-specification:Arial Bold;stroke-opacity:1"
       xml:space="preserve"><tspan
         id="tspan3830"
         y="827.36218"
         x="190"
         sodipodi:role="line">Are</tspan><tspan
         id="tspan3834"
         y="852.36218"
         x="190"
         sodipodi:role="line">You</tspan><tspan
         id="tspan3836"
         y="877.36218"
         x="190"
         sodipodi:role="line">Still</tspan><tspan
         id="tspan3838"
         y="902.36218"
         x="190"
         sodipodi:role="line">There?</tspan></text>
  </g>
  <g
     inkscape:label="2- PRIMARY OUTLINE"
     id="layer2"
     inkscape:groupmode="layer" />
  <g
     inkscape:label="3- PRIMARY TONE"
     id="layer3"
     inkscape:groupmode="layer" />
</svg>
